<svg xmlns="http://www.w3.org/2000/svg" viewBox="0 0 500 500"><g id="freepik--background-complete--inject-12"><path d="M265.64,332.65A46.4,46.4,0,0,1,278,302C281.7,317.39,265.64,332.65,265.64,332.65Z" style="fill:#ebebeb"></path><path d="M283.55,324a46.33,46.33,0,0,1,33-.91C304,332.62,283.55,324,283.55,324Z" style="fill:#ebebeb"></path><path d="M285.59,314a36.54,36.54,0,0,1,4.49-25.67C295.48,299.62,285.59,314,285.59,314Z" style="fill:#ebebeb"></path><path d="M216.34,278.08c26.18,7,40.22,29.72,40.22,29.72C234.19,307.82,216.34,278.08,216.34,278.08Z" style="fill:#ebebeb"></path><path d="M258.15,288.8c-1.36-28.21,26.21-60.14,26.21-60.14-4.16,35-26.21,60.14-26.21,60.14" style="fill:#ebebeb"></path><path d="M258,208.45a75.6,75.6,0,0,1-9.91,40.41C244.2,230.71,258,208.45,258,208.45Z" style="fill:#ebebeb"></path><path d="M247.38,265.77C226.75,263.56,215.53,243,215.53,243,240.48,250,247.38,265.77,247.38,265.77Z" style="fill:#ebebeb"></path><path d="M202.89,352a46.39,46.39,0,0,1,32.43-6.25C224.42,357.25,202.89,352,202.89,352Z" style="fill:#ebebeb"></path><path d="M256.34,361.29c-3.91,10.78-13.86,15.62-13.86,15.62C243.36,367.39,256.34,361.29,256.34,361.29Z" style="fill:#ebebeb"></path><path d="M253.69,358.25C242,365.48,229,362.66,229,362.66,237,354.38,253.69,358.25,253.69,358.25Z" style="fill:#ebebeb"></path><path d="M264.23,396.23a2.7,2.7,0,0,1,0-.42l0-1.23c0-1.16,0-2.73,0-4.73s0-4.56,0-7.47-.06-6.24-.21-9.9c-.18-7.34-.7-16.06-1.45-25.73s-2-20.26-3.63-31.34c-3.26-22.16-7.71-42-11.29-56.19-1.81-7.11-3.33-12.86-4.44-16.81l-1.23-4.56-.3-1.2a1.84,1.84,0,0,1-.07-.41s.07.13.16.39.24.7.39,1.16c.34,1.11.81,2.62,1.4,4.52,1.22,3.93,2.84,9.65,4.72,16.75a521.47,521.47,0,0,1,11.58,56.22c1.62,11.09,2.77,21.72,3.56,31.4s1.16,18.43,1.25,25.78c.12,3.67.08,7,.07,9.91s0,5.44-.11,7.49-.12,3.57-.16,4.73c0,.49-.05.89-.07,1.23A1.13,1.13,0,0,1,264.23,396.23Z" style="fill:#e0e0e0"></path><path d="M226.37,336.51c.15-.21,8.49,5.25,18.63,12.2s18.24,12.76,18.1,13-8.49-5.25-18.63-12.2S226.23,336.72,226.37,336.51Z" style="fill:#e0e0e0"></path><path d="M263.1,339.52c-.05,0,.41-.55,1.28-1.4l3.71-3.58,12.4-11.63,12.4-11.62,3.75-3.53a7.29,7.29,0,0,1,1.46-1.21,7.46,7.46,0,0,1-1.2,1.47c-.81.91-2,2.18-3.56,3.73-3,3.11-7.37,7.3-12.22,11.84s-9.32,8.56-12.59,11.43c-1.64,1.44-3,2.59-3.91,3.36A8,8,0,0,1,263.1,339.52Z" style="fill:#e0e0e0"></path><path d="M199.89,323.14s21.32-.41,30.34,16.37A38.4,38.4,0,0,1,199.89,323.14Z" style="fill:#ebebeb"></path><path d="M229,314.58S246.36,327,243.6,345.81A38.37,38.37,0,0,1,229,314.58Z" style="fill:#ebebeb"></path><path d="M320.43,284.08s-6.85,23.86-28.61,28.15A44.68,44.68,0,0,1,320.43,284.08Z" style="fill:#ebebeb"></path><path d="M219.54,195.36s27.19,17.74,24.18,46.6C243.72,242,220.31,227.14,219.54,195.36Z" style="fill:#ebebeb"></path><path d="M310.06,353.17a11.57,11.57,0,0,1-1.77,1.41c-1.17.85-2.85,2.12-4.88,3.73a119.2,119.2,0,0,0-26.91,30c-1.38,2.19-2.46,4-3.18,5.25a10.3,10.3,0,0,1-1.22,1.9,11,11,0,0,1,.9-2.07c.62-1.32,1.62-3.18,2.94-5.42A104.15,104.15,0,0,1,303,357.79c2.1-1.55,3.84-2.74,5.08-3.5A9.32,9.32,0,0,1,310.06,353.17Z" style="fill:#e0e0e0"></path><path d="M286.39,370.89a46.38,46.38,0,0,1,6.25-32.44C295.56,358.68,286.39,370.89,286.39,370.89Z" style="fill:#ebebeb"></path><path d="M304.69,360.91a33.74,33.74,0,0,1,23.74-3.68C315.3,364.19,304.69,360.91,304.69,360.91Z" style="fill:#ebebeb"></path><polygon points="224.58 398.45 234.78 465.51 294.07 465.51 307.83 399.42 224.58 398.45" style="fill:#ebebeb"></polygon><path d="M299.54,441.43c0,.19-15.19.35-33.93.35s-33.93-.16-33.93-.35,15.19-.35,33.93-.35S299.54,441.24,299.54,441.43Z" style="fill:#fafafa"></path><path d="M299.77,438.13c0,.2-15.3.35-34.16.35s-34.16-.15-34.16-.35,15.29-.35,34.16-.35S299.77,437.94,299.77,438.13Z" style="fill:#fafafa"></path><path d="M299.65,434.41c0,.19-15.29.35-34.15.35s-34.16-.16-34.16-.35,15.29-.35,34.16-.35S299.65,434.22,299.65,434.41Z" style="fill:#fafafa"></path><path d="M241.59,461.69c-.19,0-1-3.75-1.82-8.45s-1.32-8.53-1.13-8.56,1,3.75,1.82,8.44S241.78,461.65,241.59,461.69Z" style="fill:#fafafa"></path><path d="M245.63,461c-.2,0-.43-3.69-.74-8.23s-.58-8.24-.39-8.27.78,3.65,1.09,8.22S245.81,461,245.63,461Z" style="fill:#fafafa"></path><path d="M253,461c-.19,0-1-3.73-1.55-8.45S250.8,444,251,444s.59,3.8,1.14,8.49S253.17,460.94,253,461Z" style="fill:#fafafa"></path><path d="M258.14,461.32c-.19,0-.67-3.82-.82-8.58s.07-8.62.26-8.62.27,3.86.43,8.6S258.33,461.31,258.14,461.32Z" style="fill:#fafafa"></path><path d="M267.27,461c-.19,0-.47-3.64-.62-8.14s-.12-8.16.07-8.17.47,3.64.62,8.14S267.46,461,267.27,461Z" style="fill:#fafafa"></path><path d="M273.94,461.33c-.19,0-.32-3.78-.28-8.43s.23-8.42.42-8.42.32,3.77.28,8.43S274.13,461.33,273.94,461.33Z" style="fill:#fafafa"></path><path d="M280.2,460.43c-.19,0,0-4,.5-8.81s1-8.75,1.2-8.74,0,4-.5,8.81S280.39,460.45,280.2,460.43Z" style="fill:#fafafa"></path><path d="M288.26,459.55c-.18,0,.11-3.4,1-7.49s2-7.28,2.21-7.22-.65,3.32-1.53,7.37S288.46,459.58,288.26,459.55Z" style="fill:#fafafa"></path><path d="M217.78,385.17v12.55a4.94,4.94,0,0,0,4.94,4.94h85.84a4.94,4.94,0,0,0,4.94-4.94V385.17Z" style="fill:#ebebeb"></path><polygon points="225.22 402.66 225.93 406.66 305.15 412.3 307.15 402.66 225.22 402.66" style="fill:#e0e0e0"></polygon><rect x="313.71" y="36.86" width="125.6" height="130.93" style="fill:#e0e0e0"></rect><rect x="305.21" y="36.86" width="125.6" height="130.93" style="fill:#ebebeb"></rect><rect x="322.09" y="54.46" width="91.83" height="95.73" style="fill:#fafafa"></rect><path d="M322.09,150.82a17.08,17.08,0,0,1-2.29,2.61c-1.48,1.54-3.54,3.63-5.86,5.9s-4.43,4.31-6,5.76a16.47,16.47,0,0,1-2.63,2.24,17.5,17.5,0,0,1,2.29-2.59c1.47-1.54,3.54-3.64,5.86-5.92s4.44-4.32,6-5.76A17,17,0,0,1,322.09,150.82Z" style="fill:#e0e0e0"></path><path d="M413.92,150.59a17.08,17.08,0,0,1,2.61,2.29c1.53,1.48,3.62,3.54,5.9,5.86s4.31,4.42,5.76,6a17.17,17.17,0,0,1,2.24,2.63,17.5,17.5,0,0,1-2.59-2.29c-1.54-1.47-3.64-3.54-5.92-5.86s-4.32-4.44-5.76-6A17.58,17.58,0,0,1,413.92,150.59Z" style="fill:#e0e0e0"></path><path d="M413.67,54.72a16.87,16.87,0,0,1,2.3-2.61c1.47-1.54,3.54-3.63,5.85-5.9s4.43-4.31,6-5.76a16.19,16.19,0,0,1,2.62-2.24,17,17,0,0,1-2.28,2.59c-1.48,1.54-3.55,3.63-5.87,5.92s-4.44,4.31-6,5.76A17.29,17.29,0,0,1,413.67,54.72Z" style="fill:#e0e0e0"></path><path d="M321.84,55a18,18,0,0,1-2.6-2.29c-1.54-1.48-3.63-3.54-5.91-5.86s-4.31-4.43-5.76-6a17.94,17.94,0,0,1-2.24-2.63,17.21,17.21,0,0,1,2.6,2.29c1.53,1.47,3.63,3.54,5.91,5.86s4.32,4.44,5.77,6A17.81,17.81,0,0,1,321.84,55Z" style="fill:#e0e0e0"></path><path d="M413.67,150.19s0-.16,0-.46,0-.76,0-1.34c0-1.19,0-2.91,0-5.16,0-4.53,0-11.12-.08-19.5,0-16.77-.09-40.66-.15-69.27l.3.3-91.57,0h0l.34-.34c0,35.14,0,68,0,95.73l-.3-.3,66.33.15,18.62.08,4.92,0h1.27l.44,0h-.41l-1.23,0-4.87,0-18.55.07-66.52.15h-.3v-.29c0-27.72,0-60.59,0-95.73v-.35h.36l91.57,0h.3v.3c-.06,28.69-.11,52.65-.15,69.46,0,8.35-.06,14.92-.08,19.43,0,2.22,0,3.93,0,5.11,0,.56,0,1,0,1.3S413.67,150.19,413.67,150.19Z" style="fill:#e0e0e0"></path><path d="M346.33,94.45s-2,23.7,23.7,23.7C370,105.51,359.59,95.52,346.33,94.45Z" style="fill:#ebebeb"></path><path d="M393.29,94.47s-23.7-2-23.7,23.7C382.24,118.17,392.23,107.74,393.29,94.47Z" style="fill:#ebebeb"></path><path d="M368.89,81.5S349.53,98.88,370,118.15C379.45,108.09,378.64,92.31,368.89,81.5Z" style="fill:#e0e0e0"></path><polygon points="223.72 54.96 223.72 169.27 59.53 169.27 53.61 55.76 223.72 54.96" style="fill:#e0e0e0"></polygon><rect x="79.07" y="30.3" width="113.28" height="164.19" transform="translate(23.31 248.1) rotate(-90)" style="fill:#fff"></rect><path d="M218.58,169.81H52.83V55H218.58ZM54.39,168.25H217V56.54H54.39Z" style="fill:#e0e0e0"></path><rect x="71.39" y="69.83" width="128.62" height="85.13" style="fill:#fff"></rect><path d="M200,69.83l-.64,0-1.83,0-7.06,0L164,70l-92.59.18.37-.37c0,26,0,54.83,0,85.12h0l-.41-.41,128.63.09-.33.32c.07-25.91.13-47.15.17-61.94,0-7.39.07-13.17.09-17.13,0-2,0-3.46,0-4.5s0-1.56,0-1.56,0,.5,0,1.49,0,2.51,0,4.44c0,3.95,0,9.7.08,17.06,0,14.84.1,36.15.17,62.14v.32H200l-128.63.08H71V155h0c0-30.29,0-59.11,0-85.12v-.37h.37l92.84.18,26.42.1,7,.05,1.79,0Z" style="fill:#e0e0e0"></path><path d="M53.61,55.44a13.41,13.41,0,0,1,2.82,1.83c1.68,1.21,4,2.93,6.44,4.91S67.51,66,69,67.42a12.93,12.93,0,0,1,2.35,2.41c-.15.17-4.1-3.08-9-7S53.47,55.62,53.61,55.44Z" style="fill:#e0e0e0"></path><path d="M217.8,55.76c.14.17-3.73,3.47-8.64,7.35s-9,6.9-9.14,6.72,3.72-3.47,8.64-7.36S217.66,55.58,217.8,55.76Z" style="fill:#e0e0e0"></path><path d="M217.67,169.05l-18.31-14.84" style="fill:#fff"></path><path d="M199.36,154.21c.14-.17,4.36,3,9.41,7.1s9,7.56,8.9,7.74-4.35-3-9.41-7.11S199.22,154.39,199.36,154.21Z" style="fill:#e0e0e0"></path><path d="M53.61,169c-.14-.17,3.69-3.43,8.55-7.28s8.91-6.81,9-6.64-3.69,3.44-8.55,7.28S53.75,169.21,53.61,169Z" style="fill:#e0e0e0"></path><rect x="123.72" y="70.14" width="28.5" height="80.93" transform="translate(27.37 248.58) rotate(-90)" style="fill:#e0e0e0"></rect></g><g id="freepik--Table--inject-12"><path d="M482.79,465.84c0,.14-104.23.26-232.78.26s-232.8-.12-232.8-.26,104.21-.26,232.8-.26S482.79,465.69,482.79,465.84Z" style="fill:#263238"></path></g><g id="freepik--speech-bubble--inject-12"><circle cx="295.64" cy="148.99" r="6.23" style="fill:#fff"></circle><path d="M301.87,149c-.06,0,0-.56-.3-1.5a6.18,6.18,0,0,0-2.28-3.31,6,6,0,0,0-5.69-.82,5.84,5.84,0,0,0-2.77,2.1,6,6,0,0,0,0,7.06,5.88,5.88,0,0,0,2.77,2.09,6,6,0,0,0,5.69-.82,6.11,6.11,0,0,0,2.28-3.31c.26-.94.24-1.5.3-1.49a2,2,0,0,1,0,.4,4.61,4.61,0,0,1-.13,1.14,6.19,6.19,0,0,1-2.25,3.55,6.44,6.44,0,1,1,0-10.19,6.22,6.22,0,0,1,2.25,3.55,4.63,4.63,0,0,1,.13,1.15A2.12,2.12,0,0,1,301.87,149Z" style="fill:#263238"></path><circle cx="200.02" cy="151.05" r="6.23" style="fill:#fff"></circle><path d="M206.24,151.05c-.05,0,0-.56-.29-1.5a6.18,6.18,0,0,0-2.28-3.31,6,6,0,0,0-5.69-.82,5.84,5.84,0,0,0-2.77,2.1,6,6,0,0,0,2.77,9.15,6,6,0,0,0,5.69-.82,6.14,6.14,0,0,0,2.28-3.31c.26-.94.24-1.5.29-1.49s0,.13,0,.4a4.61,4.61,0,0,1-.13,1.14,6.22,6.22,0,0,1-2.25,3.55,6.42,6.42,0,0,1-9.11-1.26,6.45,6.45,0,0,1,0-7.67,6.41,6.41,0,0,1,9.1-1.26,6.22,6.22,0,0,1,2.25,3.55,4.63,4.63,0,0,1,.13,1.15A1.17,1.17,0,0,1,206.24,151.05Z" style="fill:#263238"></path><path d="M245,80.43c-5.16-4.89-15.46-5.25-21.21-.12-3.69,3.28-4.39,9.45-3.59,14.19-7,1.63-13,4.54-14.57,13.69-1.33,7.53,4.78,15.27,10.06,19.88-3.5,8.33-1.58,19.33,7.38,24.53s19.16,2.57,27.29-3.74c7.28,5.26,20.79,6.42,27.34.35a18.17,18.17,0,0,0,2.12-23.82c8.19.13,15.69-7.07,15.44-14.83S287.12,96,279,96.63c3.59-8.16.07-15.7-8-20.14S250.73,73.43,245,80.43" style="fill:#fff"></path><path d="M245,80.43s.2-.24.61-.7a13.54,13.54,0,0,1,2-1.86,20.4,20.4,0,0,1,9.63-3.82,23.74,23.74,0,0,1,7.53.16,20.86,20.86,0,0,1,8.25,3.39,17.26,17.26,0,0,1,6.55,7.81,13.52,13.52,0,0,1,.92,5.54,16.2,16.2,0,0,1-1.39,5.76l-.19-.28a16,16,0,0,1,10.18,3,15.06,15.06,0,0,1,6.25,9.56,13.66,13.66,0,0,1-3.83,11.45,16,16,0,0,1-11.68,5.2l.2-.4A18,18,0,0,1,283.6,136a18.82,18.82,0,0,1-3.69,11.17,14,14,0,0,1-4.57,4.06,18.27,18.27,0,0,1-5.87,2,24.2,24.2,0,0,1-6.25.25A28.28,28.28,0,0,1,257,152.3a23.34,23.34,0,0,1-6.75-3.23h.32a30.43,30.43,0,0,1-13.78,6.28,21.17,21.17,0,0,1-7.45-.13,20.56,20.56,0,0,1-6.79-2.68,17.88,17.88,0,0,1-5.23-4.9,18.86,18.86,0,0,1-2.87-6.39A21.53,21.53,0,0,1,215.52,128l.06.26a36.3,36.3,0,0,1-7.94-9.62,19.9,19.9,0,0,1-2.09-5.6,13.62,13.62,0,0,1,.11-5.76,17.34,17.34,0,0,1,2-5.17,13.77,13.77,0,0,1,3.54-4,23.54,23.54,0,0,1,9-3.8l-.13.19a20.83,20.83,0,0,1,.32-8.51,11.14,11.14,0,0,1,4-6.34,14.85,14.85,0,0,1,5.94-2.73,18.12,18.12,0,0,1,5.48-.36A16.35,16.35,0,0,1,243,78.82l.94.64c.26.19.45.39.62.53.33.28.49.44.49.44s-.18-.13-.52-.41c-.17-.13-.37-.32-.64-.5l-.94-.62a16.4,16.4,0,0,0-7.12-2.13,17.72,17.72,0,0,0-5.41.4,14.64,14.64,0,0,0-5.83,2.72,10.77,10.77,0,0,0-3.88,6.2,20.37,20.37,0,0,0-.29,8.38l0,.16-.16,0a23.23,23.23,0,0,0-8.89,3.77,13.2,13.2,0,0,0-3.42,3.85,17.14,17.14,0,0,0-1.91,5.06,13.16,13.16,0,0,0-.08,5.59A18.67,18.67,0,0,0,208,118.4a35.94,35.94,0,0,0,7.86,9.49l.12.11-.06.16a21,21,0,0,0-1,13,17.56,17.56,0,0,0,7.88,11,20,20,0,0,0,6.63,2.61,20.87,20.87,0,0,0,7.27.12,29.85,29.85,0,0,0,13.54-6.18l.15-.12.16.12a23,23,0,0,0,6.59,3.15,27.4,27.4,0,0,0,6.12,1.14,23.72,23.72,0,0,0,6.13-.24,17.94,17.94,0,0,0,5.7-1.92,13.71,13.71,0,0,0,4.41-3.92A18.27,18.27,0,0,0,283.09,136a17.48,17.48,0,0,0-3.43-10.46l-.3-.4h.5a15.49,15.49,0,0,0,11.34-5,13.2,13.2,0,0,0,3.72-11,14.65,14.65,0,0,0-6.05-9.29,15.58,15.58,0,0,0-9.9-3l-.33,0,.13-.29a15.92,15.92,0,0,0,1.37-5.61,13.14,13.14,0,0,0-.87-5.4,16.91,16.91,0,0,0-6.4-7.67,20.28,20.28,0,0,0-8.12-3.39,23.63,23.63,0,0,0-7.45-.21A20.44,20.44,0,0,0,247.71,78a15,15,0,0,0-2,1.81C245.27,80.21,245,80.43,245,80.43Z" style="fill:#263238"></path><path d="M268,112.27a11.22,11.22,0,0,0-2.72-6.14,10.79,10.79,0,0,0-5.52-3.57,8.78,8.78,0,0,0-6.81,1.17,8.89,8.89,0,0,0-2.85,3.06,8.68,8.68,0,0,0-2.51-2.85,8.84,8.84,0,0,0-6.75-1.49,10.76,10.76,0,0,0-5.68,3.32,11.19,11.19,0,0,0-3,6,13.62,13.62,0,0,0,1.5,8.41,19.36,19.36,0,0,0,6.48,6.37c4.28,2.71,9.91,6.11,9.91,6.11s4.9-3.5,9.3-6a19.26,19.26,0,0,0,6.78-6A13.65,13.65,0,0,0,268,112.27Z" style="fill:#ED4F37"></path></g><g id="freepik--Characters--inject-12"><path d="M154.86,147.19a34.57,34.57,0,0,1,14.3,28.6c-.14,5.39-1.31,11.59,2.39,15.51s10.44,3.42,14,7.43c4.15,4.71,1.25,12.19,3,18.24a12.44,12.44,0,0,0,13.68,8.56,48.5,48.5,0,0,1-23.5,11.64l-7.17-8.29c2.71,2.9,2.27,7.75,0,11s-6,5.09-9.74,6.48a61.61,61.61,0,0,1-54.35-6" style="fill:#263238"></path><path d="M56.35,199.75c1.13-4.19,3.2-8.12,3.89-12.4,1.48-9.19-3.47-19.21.52-27.63,2.85-6,9.4-9.18,15.63-11.45s12.94-4.27,17.42-9.16c3.29-3.58,5-8.37,8.3-12,4.67-5.12,11.85-7.14,18.73-7.91,7.08-.8,14.45-.49,21,2.32S154,130,155.46,136.93c.73,3.39.49,7,1.73,10.24,1.37,3.56,4.36,6.23,6.29,9.53A18.25,18.25,0,0,1,160,178.78l-45.52,65.39c-10,4.38-35.06,1-43.36-6.19S53.48,210.32,56.35,199.75Z" style="fill:#263238"></path><path d="M158.34,170.85c-2.74-14.18-14.46-30.51-28.51-27.18L86.78,160.61a8.47,8.47,0,0,0-6.41,9.47L98.88,276.74l-.3.11s23,40,51.28,27c5.6-2.57-1.63-20.26-1.3-27l-1.63-17c-1-8.68-1.46-12.23-1.45-12.15s17.88-5.37,18.61-29.69C164.46,206,161.37,186.61,158.34,170.85Z" style="fill:#ffbf9d"></path><path d="M125.23,195.49a3.08,3.08,0,0,1-2.55,3.46,3,3,0,0,1-3.51-2.35,3.09,3.09,0,0,1,2.55-3.47A3,3,0,0,1,125.23,195.49Z" style="fill:#263238"></path><path d="M156.12,192.53a3.07,3.07,0,0,1-2.55,3.46,3,3,0,0,1-3.5-2.35,3.09,3.09,0,0,1,2.55-3.47A3,3,0,0,1,156.12,192.53Z" style="fill:#263238"></path><path d="M156.71,181.75c-.3.58-3.25-1.08-6.8-.38s-5.71,3.27-6.2,2.84c-.24-.19,0-1.17.92-2.35a8.29,8.29,0,0,1,4.84-2.89,8.2,8.2,0,0,1,5.54.92C156.31,180.65,156.87,181.49,156.71,181.75Z" style="fill:#263238"></path><path d="M123.74,187.26c-.4.54-3.31-1.36-7.15-1s-6.45,2.67-6.91,2.21c-.23-.21.13-1.15,1.27-2.22a9.34,9.34,0,0,1,5.48-2.38,9.09,9.09,0,0,1,5.74,1.42C123.44,186.15,123.93,187,123.74,187.26Z" style="fill:#263238"></path><path d="M138.22,209.12c0-.19,2-.8,5.22-1.65.83-.19,1.61-.46,1.67-1.05a4.25,4.25,0,0,0-.88-2.42l-3.3-6.08c-4.62-8.66-8.07-15.83-7.72-16s4.38,6.69,9,15.35l3.21,6.13a4.9,4.9,0,0,1,.85,3.24A2.12,2.12,0,0,1,145,208a6,6,0,0,1-1.4.38C140.33,209,138.26,209.31,138.22,209.12Z" style="fill:#263238"></path><path d="M145.48,247.75a61.13,61.13,0,0,1-33-4.42s10.17,15.7,33.74,10.41Z" style="fill:#ff9a6c"></path><path d="M137.85,217.22a6,6,0,0,0-5.6-1.52,5.48,5.48,0,0,0-3.48,2.49,3.47,3.47,0,0,0,.25,3.95c1,1.14,2.94,1.19,4.45.54a12.52,12.52,0,0,0,3.88-3.05,3.56,3.56,0,0,0,.81-1.09,1.08,1.08,0,0,0-.16-1.22" style="fill:#ED4F37"></path><path d="M128.84,212.63c.53-.09,1,3.47,4.37,5.62s7.13,1.26,7.22,1.76c.08.21-.75.8-2.35,1.05a9,9,0,0,1-6-1.27,7.8,7.8,0,0,1-3.44-4.73C128.3,213.58,128.59,212.65,128.84,212.63Z" style="fill:#263238"></path><path d="M123.08,178.34c-.21.94-3.55.93-7.34,1.89s-6.79,2.41-7.41,1.68c-.27-.36.16-1.27,1.31-2.3a12.63,12.63,0,0,1,5.3-2.65,12.49,12.49,0,0,1,5.93-.06C122.36,177.29,123.17,177.9,123.08,178.34Z" style="fill:#263238"></path><path d="M152.62,168.63c-.56.83-3.25.39-6.37.75s-5.69,1.24-6.39.53c-.32-.34,0-1.14,1.06-2a9.79,9.79,0,0,1,5-1.88,9.62,9.62,0,0,1,5.27.85C152.41,167.5,152.87,168.23,152.62,168.63Z" style="fill:#263238"></path><path d="M77.27,164.55c2-3.52,5.92-5.47,9.63-7.12A220.51,220.51,0,0,1,137,141.94c2.35,3.45.59,8.39-2.53,11.15s-7.27,4-11.09,5.65-7.71,4.11-9.12,8c-1.5,4.17.18,8.94-1.1,13.18-2.22,7.3-12.11,10.12-14.29,17.43-1.64,5.53,1.8,11.15,2.87,16.82a20.6,20.6,0,0,1-19,24.46L76,177.14C75.52,172.87,75.12,168.26,77.27,164.55Z" style="fill:#263238"></path><path d="M38.47,218.61c3.1-3.08,7.05-5.8,8.13-10,1.58-6.17-3.65-13.05-.8-18.73,2.61-5.19,11.05-5.36,13.45-10.64,1.88-4.13-.69-7.56-.08-11.14s5.46-6.92,9.08-6.68L98.4,200.67c3.3,13.53,6.3,20.66,3.77,28.8-1.38,4.46-3.26,8.84-3.66,13.5s1,9.84,5,12.38c-16.72,2.17-32.91-5.82-47.88-13.58l-15.85-8.21a11.31,11.31,0,0,1-4.41-3.31C32.89,226.63,35.37,221.69,38.47,218.61Z" style="fill:#263238"></path><path d="M55,237.67a7.64,7.64,0,0,0,1.81.26,15.29,15.29,0,0,0,5.21-.64,16.23,16.23,0,0,0,7.1-4.3,16,16,0,0,0,4.3-10.06,16.37,16.37,0,0,0-.87-6.41,26.11,26.11,0,0,0-3.44-6.08,25,25,0,0,1-3.55-6.32c-.73-2.3-.88-5.07.54-7.16s4.24-2.77,6.82-4a6.81,6.81,0,0,0,4.38-7.29c-.2-3.08-1.65-5.82-2.36-8.65a9.48,9.48,0,0,1-.24-4.29,6,6,0,0,1,2.25-3.53c2.33-1.86,5.41-2.29,8.38-2.7a18.18,18.18,0,0,0,8.52-3,16.3,16.3,0,0,0,5.6-6.72,27,27,0,0,0,1.78-8.16,37.42,37.42,0,0,1,1.26-7.63,16.89,16.89,0,0,1,3.65-6.16A19.43,19.43,0,0,1,117.46,129,19.23,19.23,0,0,1,128,130.66a23.17,23.17,0,0,1,6.72,4.6,29.83,29.83,0,0,1,4.29,5.53s0-.16-.18-.43-.33-.7-.65-1.2A21.25,21.25,0,0,0,135,135a22.89,22.89,0,0,0-6.76-4.83,19.81,19.81,0,0,0-10.83-1.83,20.05,20.05,0,0,0-11.85,6,17.63,17.63,0,0,0-3.88,6.44,38.79,38.79,0,0,0-1.34,7.8,26.44,26.44,0,0,1-1.73,7.88,15.42,15.42,0,0,1-5.29,6.31,17.27,17.27,0,0,1-8.12,2.81c-2.94.42-6.23.84-8.85,2.9a7,7,0,0,0-2.6,4.1,10.4,10.4,0,0,0,.26,4.72c.77,3,2.17,5.66,2.34,8.48a6.58,6.58,0,0,1-.79,3.91,6.72,6.72,0,0,1-3,2.48c-1.22.59-2.55,1-3.83,1.64a8,8,0,0,0-3.32,2.66c-1.64,2.46-1.4,5.49-.62,7.94a25.6,25.6,0,0,0,3.7,6.51,25.14,25.14,0,0,1,3.39,5.88,15.77,15.77,0,0,1-3.11,15.84,16.07,16.07,0,0,1-6.81,4.31A17.9,17.9,0,0,1,55,237.67Z" style="fill:#455a64"></path><path d="M31.1,209.87a3.53,3.53,0,0,0-.49,1.4,6.1,6.1,0,0,0,.93,4.13,6.55,6.55,0,0,0,2.27,2.15,6.64,6.64,0,0,0,3.63.77,8.38,8.38,0,0,0,7.12-5,11.29,11.29,0,0,0,.94-5.18A15.78,15.78,0,0,0,44,202.61c-1.52-3.57-4.12-7-4.39-11.23a7.75,7.75,0,0,1,1.66-5.87c1.42-1.6,3.71-2.08,6-2.22s4.82,0,7.23-1.12a6.31,6.31,0,0,0,2.86-2.67,9,9,0,0,0,1-3.77c.18-2.64-.56-5.08-1-7.44a16.39,16.39,0,0,1,0-6.94,17.46,17.46,0,0,1,7.3-10.65c3.53-2.38,7.73-2.83,11.51-3.25s7.49-.82,10.54-2.22a22.2,22.2,0,0,0,7.29-5.11,21.93,21.93,0,0,0,3.85-5.5,15.9,15.9,0,0,0,1.73-5.44,30.81,30.81,0,0,1-2.07,5.26A22.48,22.48,0,0,1,86.58,144.6c-3,1.3-6.53,1.68-10.36,2s-8.14.8-11.92,3.31a18.34,18.34,0,0,0-7.73,11.19,17.25,17.25,0,0,0-.06,7.33c.44,2.41,1.13,4.8,1,7.19s-1.23,4.7-3.34,5.63-4.53.85-6.88,1-5,.66-6.63,2.55a8.64,8.64,0,0,0-1.87,6.57,16.44,16.44,0,0,0,1.86,6.17c.91,1.87,1.91,3.59,2.68,5.32a15,15,0,0,1,1.46,5.2,10.7,10.7,0,0,1-.82,4.86,7.83,7.83,0,0,1-6.52,4.78,5.91,5.91,0,0,1-5.55-2.59,6,6,0,0,1-1.05-3.89A14.38,14.38,0,0,1,31.1,209.87Z" style="fill:#263238"></path><path d="M208.6,210.92a6.58,6.58,0,0,1,.17,4.39,5.82,5.82,0,0,1-3.31,3.72,6.08,6.08,0,0,1-6.25-1.37,5.57,5.57,0,0,1-1.62-3.45,11.56,11.56,0,0,1,.42-4.28c.75-2.89,2.41-6.08,2-9.77a13.59,13.59,0,0,0-5.6-9.44,16,16,0,0,0-5.38-2.5,23.46,23.46,0,0,0-6-.55,31.9,31.9,0,0,1-5.84-.31,7.8,7.8,0,0,1-4.66-2.58,9.46,9.46,0,0,1-1.89-4.89,19.22,19.22,0,0,1,.17-5.2c.52-3.39,1.36-6.7,1-9.9a15,15,0,0,0-3.41-8,19.44,19.44,0,0,0-5.71-4.35,36,36,0,0,1-4.53-2.8,11.22,11.22,0,0,1-2.93-3.39s0,.1.08.29a5.8,5.8,0,0,0,.38.8,9,9,0,0,0,2.23,2.6,33.85,33.85,0,0,0,4.49,3,18.9,18.9,0,0,1,5.45,4.31,14.22,14.22,0,0,1,3.14,7.65c.3,3-.53,6.23-1.09,9.68a19.72,19.72,0,0,0-.21,5.45,10.45,10.45,0,0,0,2.07,5.38,8.68,8.68,0,0,0,5.22,2.93,32.12,32.12,0,0,0,6,.34,22.4,22.4,0,0,1,5.78.52,14.93,14.93,0,0,1,5,2.32,12.72,12.72,0,0,1,5.27,8.77c.47,3.38-1.07,6.43-1.83,9.47a12.12,12.12,0,0,0-.39,4.58,6.26,6.26,0,0,0,1.89,3.85,6.66,6.66,0,0,0,6.93,1.38,6.39,6.39,0,0,0,3.46-7.55A3.49,3.49,0,0,0,208.6,210.92Z" style="fill:#263238"></path><path d="M149.25,268.32s32.59,17.38,37.1,30.27,2.56,98.64,2.56,98.64l11.62,68.39H185.48Z" style="fill:#455a64"></path><path d="M66,266.1c-9.12,2.63-14.43,12.88-17.74,21.82-2.18,5.92-2.93,19.55-1.17,30.24C51.33,343.75,73,421.66,73,421.66l-15.73,44H190.1s-1.64-107.61-2.74-129-40-71.68-40-71.68l2.89,29.81L95.77,258.82S80.74,261.86,66,266.1Z" style="fill:#455a64"></path><path d="M189.26,369.36a.93.93,0,0,1,0,.25c0,.19,0,.43,0,.73,0,.68-.08,1.62-.13,2.8-.11,2.48-.27,6-.47,10.31-.35,8.71-.65,20.75-.53,34.05s.66,25.33,1.16,34c.26,4.31.47,7.82.63,10.3.07,1.18.12,2.12.16,2.8l0,.73a.93.93,0,0,1,0,.25.68.68,0,0,1,0-.24l-.08-.73c-.06-.68-.15-1.61-.27-2.8-.22-2.42-.5-5.94-.79-10.29-.59-8.7-1.17-20.74-1.31-34.06s.24-25.35.69-34.06c.22-4.36.44-7.88.63-10.31.09-1.18.17-2.12.22-2.8l.08-.73A.58.58,0,0,1,189.26,369.36Z" style="fill:#263238"></path><path d="M62.24,344.91s39,77.9,69,78.81,36.56-14.52,43.69-25.41,11-24.13,11-24.13l-42,26.17Z" style="opacity:0.30000000000000004"></path><path d="M49.54,322.33c16.43,37.55,66.66,87.61,81.62,92.59,18.22,6.07,26.35-2.59,32.24-9.76S197.23,358,197.23,358l-35.14-31.79L142.2,352.38S98.72,285,96,282.13" style="fill:#455a64"></path><path d="M96,282.13s.33.39,1,1.18,1.47,2,2.57,3.63c2.22,3.21,5.41,8,9.46,14.08,8.09,12.22,19.58,29.83,33.44,51.24H142l19.86-26.17.16-.21.2.17c10.88,9.84,22.75,20.58,35.15,31.78l.17.16-.13.18-15.88,22.55q-5.76,8.12-11.45,16c-1.9,2.61-3.79,5.2-5.76,7.71a50,50,0,0,1-6.43,7,22.55,22.55,0,0,1-17.12,5.8c-.76,0-1.51-.16-2.26-.23l-1.11-.15-1.1-.23c-.73-.16-1.47-.29-2.19-.48l-2.13-.63a28.27,28.27,0,0,1-7.8-4A132.35,132.35,0,0,1,111.05,401c-4.08-3.62-7.9-7.27-11.51-10.89-7.21-7.24-13.6-14.31-19.18-21a245.59,245.59,0,0,1-24-33.39c-2.47-4.19-4.13-7.58-5.26-9.88l-1.19-2.65c-.27-.6-.39-.91-.39-.91s.15.3.43.89.7,1.48,1.24,2.63c1.16,2.27,2.85,5.65,5.35,9.81a249.38,249.38,0,0,0,24.09,33.26c5.58,6.64,12,13.69,19.19,20.91,3.62,3.6,7.44,7.24,11.51,10.84a129.55,129.55,0,0,0,13.13,10.38,27.49,27.49,0,0,0,7.67,3.9l2.11.62c.71.19,1.44.32,2.16.48l1.09.23,1.1.14c.74.07,1.47.21,2.22.23A22.15,22.15,0,0,0,157.59,411a49.8,49.8,0,0,0,6.36-6.91c2-2.5,3.84-5.08,5.74-7.69q5.7-7.83,11.44-15.95L197,357.87l0,.34L161.92,326.4l.36,0-19.91,26.14-.19.24-.16-.25c-13.82-21.45-25.26-39.09-33.29-51.34-4-6.13-7.17-10.92-9.36-14.15-1.08-1.62-2-2.83-2.51-3.66S96,282.13,96,282.13Z" style="fill:#263238"></path><path d="M66,266.1a5.45,5.45,0,0,1,1.2-.35,11.17,11.17,0,0,1,1.44-.28,17.92,17.92,0,0,1,1.92-.24,28,28,0,0,1,5.06.06,31.34,31.34,0,0,1,6.05,1.3,32,32,0,0,1,5.64,2.57,27,27,0,0,1,4.08,3,18.75,18.75,0,0,1,1.41,1.34,10.88,10.88,0,0,1,1,1.08,5.18,5.18,0,0,1,.75,1c-.08.07-1.19-1.32-3.38-3.14a29.08,29.08,0,0,0-4.09-2.84,32.34,32.34,0,0,0-5.55-2.49,32.92,32.92,0,0,0-6-1.32,28.87,28.87,0,0,0-5-.17C67.76,265.76,66,266.21,66,266.1Z" style="fill:#263238"></path><path d="M142.05,382.68c-.14,0-.23-6.78-.18-15.15s.19-15.15.33-15.15.23,6.78.19,15.15S142.2,382.68,142.05,382.68Z" style="fill:#263238"></path><path d="M191.49,257.15c-1.23-.4-7.72,7.14-9.46,9.65-1.21,1.76-3.47,9.85-4.72,14.55a11.28,11.28,0,0,0,.29,6.68L184,305.81l25.69,8.69s7.14-5.6,8.69-12.36,6.75-27.42,6.75-27.42l-6.56-1.55-3.86,4.25-2.13-7.34s-2.7-2.12-4.83.2c0,0-1.54-4.44-7-1.74,0,0-.38-4.83-2.89-5.6a6,6,0,0,0-4.64.58S195.74,258.5,191.49,257.15Z" style="fill:#ffbf9d"></path><path d="M227.32,270.24s3.37-2.82,7.2.8c0,0,2.48-2.24,5-1.84a7.83,7.83,0,0,1,4.24,2.57s3.21-3.07,5.07-2.62,3.83,3.24,3.83,3.24a28.46,28.46,0,0,1,5.07,1.24c1.24.62,2.69,5.59,2.69,6s2.28,10.46,0,13.46-11.09,19.76-11.09,19.76l-29.58-2.48-1.38-8.23,5.42-29.34Z" style="fill:#bf6259"></path><path d="M234.68,271.75a12.82,12.82,0,0,1,.56,1.67c.33,1.09.8,2.66,1.33,4.62s1.11,4.3,1.63,6.94c.25,1.32.51,2.69.66,4.17a8.33,8.33,0,0,1-.06,2.28,3.94,3.94,0,0,1-1.1,2.15,4,4,0,0,1-4.51.48,6.84,6.84,0,0,1-2.91-3.15,23,23,0,0,1-1.32-3.6c-.34-1.14-.64-2.21-.9-3.2-.52-2-.89-3.55-1.14-4.66a13.45,13.45,0,0,1-.33-1.73,10.84,10.84,0,0,1,.53,1.68l1.3,4.62c.28,1,.59,2,1,3.16a22.46,22.46,0,0,0,1.33,3.52,6.43,6.43,0,0,0,2.71,2.9,3.48,3.48,0,0,0,3.92-.4c1-1,1.13-2.62,1-4s-.4-2.82-.63-4.12c-.49-2.63-1-5-1.52-6.94s-.87-3.47-1.16-4.65A10.71,10.71,0,0,1,234.68,271.75Z" style="fill:#93453d"></path><path d="M237.49,293.43a6,6,0,0,1,.72,1,3.91,3.91,0,0,0,2.64,1.58,2.49,2.49,0,0,0,2-.56,4.32,4.32,0,0,0,.93-2.24,15.87,15.87,0,0,0,.2-2.82c0-1,0-2,0-3.09,0-4.22-.11-8.05-.13-10.83,0-1.39,0-2.51,0-3.29a5.25,5.25,0,0,1,.08-1.2,4.91,4.91,0,0,1,.12,1.2c0,.88.09,2,.15,3.28.11,2.77.28,6.6.29,10.84,0,1.06,0,2.1,0,3.1a15.28,15.28,0,0,1-.24,2.9,4.63,4.63,0,0,1-1.11,2.47,2.82,2.82,0,0,1-2.29.6,4,4,0,0,1-2.75-1.83A5,5,0,0,1,237.49,293.43Z" style="fill:#93453d"></path><path d="M251.43,281.41a37.74,37.74,0,0,1,0,6.75,10.48,10.48,0,0,1-1.26,4.18,4,4,0,0,1-1.77,1.52,2.8,2.8,0,0,1-2.2,0A4,4,0,0,1,244.1,291a8.5,8.5,0,0,1-.1-2.39,2.8,2.8,0,0,1,.14-.86,3,3,0,0,1,.07.87,10,10,0,0,0,.25,2.3,3.57,3.57,0,0,0,2,2.49,2.84,2.84,0,0,0,3.35-1.39,10.33,10.33,0,0,0,1.22-4,28.51,28.51,0,0,0,.24-3.46A16.67,16.67,0,0,1,251.43,281.41Z" style="fill:#93453d"></path><path d="M255.81,281a1.91,1.91,0,0,1-.76.37,7.35,7.35,0,0,1-2.27.39,7.94,7.94,0,0,1-3.35-.69,7.85,7.85,0,0,1-3.23-2.69c-1.76-2.49-1.79-5.59-.77-7.32a4.24,4.24,0,0,1,1.62-1.65c.49-.26.8-.3.8-.27s-.26.15-.69.44a4.44,4.44,0,0,0-1.41,1.65,7,7,0,0,0,.88,6.85,7.64,7.64,0,0,0,3,2.56,8.31,8.31,0,0,0,3.16.75A13.16,13.16,0,0,0,255.81,281Z" style="fill:#93453d"></path><path d="M193.91,263.18c.05.08-1,.79-2.49,2.21a26,26,0,0,0-4.8,6.35c-1.39,2.81-2.6,5.41-3.37,7.31a27.85,27.85,0,0,1-1.3,3.08,2.62,2.62,0,0,1,.19-.89c.17-.55.42-1.35.76-2.33a74.22,74.22,0,0,1,3.26-7.41,23.21,23.21,0,0,1,5-6.38,17,17,0,0,1,2-1.5A2.74,2.74,0,0,1,193.91,263.18Z" style="fill:#ff9a6c"></path><path d="M200.76,268.54a31.06,31.06,0,0,1-2.38,4c-1.38,2.17-2.27,4-2.38,4s.55-2.08,1.94-4.27A16,16,0,0,1,200.76,268.54Z" style="fill:#ff9a6c"></path><path d="M207.71,270.28a16,16,0,0,1-.75,3.27,8.21,8.21,0,0,1-1.25,3.14,16.16,16.16,0,0,1,.75-3.28A8.5,8.5,0,0,1,207.71,270.28Z" style="fill:#ff9a6c"></path><path d="M217.78,281.37a2.89,2.89,0,0,1-1.55-1.1,13.44,13.44,0,0,1-2.23-4,25.77,25.77,0,0,1-1.25-4.35,6.14,6.14,0,0,1-.21-1.87c.16,0,.7,2.78,2,6a11,11,0,0,0,3.29,5.25Z" style="fill:#ff9a6c"></path><polygon points="209.65 314.5 192.18 352.83 164.45 328.67 182.25 301.02 209.65 314.5" style="fill:#ffbf9d"></polygon><path d="M251.43,319.73a56.11,56.11,0,0,1-2.17-13.37l-29.54,4c1,1.43,5.37,34.54,5.37,34.54L254,326.62A54.72,54.72,0,0,1,251.43,319.73Z" style="fill:#bf6259"></path><path d="M214.83,277.17s-2.5-2.11-2.39-4.6a11.56,11.56,0,0,1,.9-4.16,8.82,8.82,0,0,1,7.51-2c4.34,1,8.59,6,8.59,6s-.54,3.45-3.63,2.83a69.63,69.63,0,0,1-7.28-2.06Z" style="fill:#bf6259"></path><path d="M214.83,277.17a10.89,10.89,0,0,1,1-1.15c.66-.75,1.54-1.75,2.62-3l.07-.08.1,0c1.53.49,3.36,1.05,5.45,1.57.52.13,1.05.26,1.6.37a3.25,3.25,0,0,0,1.61,0,3.2,3.2,0,0,0,1.94-2.6l.06.2a26.41,26.41,0,0,0-3.63-3.42c-2-1.53-4.22-2.74-6.48-2.71a8.85,8.85,0,0,0-5.64,2.13l0-.06a12.22,12.22,0,0,0-.91,3.77,4.75,4.75,0,0,0,.65,2.83,13.52,13.52,0,0,0,1.56,2.07,2.15,2.15,0,0,1-.54-.43,8,8,0,0,1-1.23-1.52,4.84,4.84,0,0,1-.77-3,12,12,0,0,1,.86-3.93l0,0,0,0a9.15,9.15,0,0,1,5.93-2.32c2.42-.05,4.77,1.23,6.8,2.79a26.9,26.9,0,0,1,3.7,3.5l.08.09,0,.12a4.83,4.83,0,0,1-.76,1.82,2.93,2.93,0,0,1-1.55,1.16,3.58,3.58,0,0,1-1.84,0q-.84-.18-1.62-.39c-2.1-.56-3.92-1.15-5.45-1.69l.18,0c-1.15,1.19-2.1,2.17-2.82,2.9A10.74,10.74,0,0,1,214.83,277.17Z" style="fill:#93453d"></path><path d="M254.31,292.74c0,.09-1.21.18-3.13.58a27.34,27.34,0,0,0-13.29,7.09c-1.41,1.36-2.16,2.32-2.24,2.27a3.06,3.06,0,0,1,.46-.73,16.63,16.63,0,0,1,1.51-1.8A24.4,24.4,0,0,1,251.11,293a17.34,17.34,0,0,1,2.34-.25A2.43,2.43,0,0,1,254.31,292.74Z" style="fill:#93453d"></path><path d="M402.07,103a12.41,12.41,0,0,1,10.65-2.9c1.52.32,3.16.91,4.55.22,1-.5,1.58-1.53,2.36-2.33a6.29,6.29,0,0,1,9,.46,7.5,7.5,0,0,0,1.64,1.89c2.88,1.8,6.62-3.56,9.48-1.72a7.07,7.07,0,0,0-3.54,2.36,3.23,3.23,0,0,0,.05,4c2.61,2.68,7.64-2.46,10.61-.18,1.59,1.23,1.6,4.11,3.52,4.73a6.69,6.69,0,0,0,2.32,0,5.16,5.16,0,0,1,5.13,4.85c.05,2.24-1.28,4.87.27,6.48,1,1,2.54,1,3.92.88a13.37,13.37,0,0,1-1.91,5.77A8.1,8.1,0,0,1,462,138.62a17.41,17.41,0,0,1,4.29,5.13c.95,2,1,4.65-.45,6.35a5.18,5.18,0,0,0-1,1.2,3,3,0,0,0-.13,1.63c.26,2.11,1,4.2.79,6.31s-2,4.33-4.09,4c-.49-.08-1-.29-1.46-.05a1.37,1.37,0,0,0-.58.92,14.29,14.29,0,0,0-.05,4.57,6.1,6.1,0,0,1-1,4.36c-1,1.17-3.11,1.44-4,.17l1.26,7.23c.25,1.43.41,3.15-.7,4.1-1.44,1.25-3.78,0-4.67-1.69s-1-3.71-1.94-5.37a10.93,10.93,0,0,1-1.13-2c-.19-.59-.21-1.27-.66-1.7-.89-.86-2.45.35-2.42,1.59s.93,2.24,1.63,3.26,1.23,2.43.51,3.45c-.34.48-.92.78-1.25,1.27-1.14,1.72,1.36,3.68,1.51,5.74.11,1.52-1.09,2.8-2.25,3.79-1.42,1.21-4,2.07-4.75.34a17.06,17.06,0,0,1-.25-1.92,4.68,4.68,0,0,0-1.33-1.81,9.61,9.61,0,0,1-2.49-5c1.41,2.06,2.86,4.74,1.58,6.88a10.49,10.49,0,0,1-2.24,2.17c-1.53,1.36-2.56,3.2-4.07,4.58s-3.89,2.22-5.59,1.09a4.61,4.61,0,0,1-8.05,4,4,4,0,0,0-1.17-1.21,3.31,3.31,0,0,0-1.8-.1,10,10,0,0,1-9.31-4.61l1.88-.5c-3.55-.74-7.24-1.55-10.06-3.83s-4.44-6.49-2.63-9.63c.78-1.36,2.18-2.71,1.71-4.21-.32-1-1.42-1.58-2.41-2l-12.43-5.5c-2-.89-4.12-1.86-5.36-3.67s-1.14-4.74.78-5.81a11.78,11.78,0,0,0-4.06-5.14c-2-1.44-4.46-2.21-6.54-3.56s-3.91-3.63-3.56-6.09,3.91-4.1,5.47-2.17c0-3.75-6.67-4.5-6.95-8.24-.23-3,3.74-4.3,5.9-6.45-.33-1.08-1.34-1.83-1.69-2.9-.75-2.23,1.67-4.22,3.86-5.06s4.86-1.66,5.56-3.91-1.1-5.11.31-7.07a2.67,2.67,0,0,1,3.56-.59c2-4.16,9.87-.3,12.54-4.09a1.66,1.66,0,0,0,.35-1,1.73,1.73,0,0,0-.34-.87c-.84-1.25-2.23-2-3.35-3s-2-2.62-1.34-4,3.3-1.11,3.15.39a3.31,3.31,0,0,1,5,1.66c1.13-1.17,3.16-1,4.5-.06a10.44,10.44,0,0,1,2.9,3.89" style="fill:#263238"></path><path d="M418.71,152c-1-6.24-5.27-11.49-10.09-15.59a16.26,16.26,0,0,0-6.84-3.9c-2.59-.55-5.63.21-7.08,2.43l.12,4.43c-.94,7,4.16,13.19,6.38,19.88,1,2.91,1.7,6.38,4.44,7.75a6.64,6.64,0,0,0,4.71.21C416.44,165.51,419.71,158.29,418.71,152Z" style="fill:#ED4F37"></path><path d="M417.58,184.53a14.13,14.13,0,0,0-.54-18.12c2.72-3.14,2-8.19-.51-11.5s-6.32-5.31-10-7.2c-1.69-9.57-12.08-16.67-21.62-14.76-4.63-7.43-15.07-9-23.56-6.87A22.44,22.44,0,0,1,355,127.2a36.84,36.84,0,0,1-4.63-.83c-8.5-1.49-17.21,4.19-20.86,12a15.69,15.69,0,0,1-2,3.63c-1.16,1.38-2.88,2.16-4.35,3.2a13.67,13.67,0,0,0-5.63,9.89c-.27,3.31.65,6.87-.87,9.83-.76,1.48-2.07,2.65-2.68,4.2-1.76,4.5,3.11,9.36,2,14.05-.23,1-.7,1.84-1,2.78a8.34,8.34,0,0,0,.28,5.9c.62,1.43,1.65,2.75,1.68,4.31a13.32,13.32,0,0,1-.82,3.42c-.69,2.8,5,13.94,7.35,15.57l72.92,3.54a13.63,13.63,0,0,0,11-11.32,5,5,0,0,1,.79-2.65,5.84,5.84,0,0,1,2-1.22c4.8-2.33,5.62-8.76,5.33-14.09a6.61,6.61,0,0,1,.13-2.22A8.32,8.32,0,0,1,417.58,184.53Z" style="fill:#263238"></path><path d="M396.79,183.82c.73-12.9-6.78-28.06-19.36-34.88-7.92-4.3-14.23-4.57-18.46-5.24a29.63,29.63,0,0,0-17.35,2.93c-4.05.78-19.32,13.69-20.67,28.3-1.49,16.23-2.67,36.11-1.1,48.29,3.17,24.51,21.78,28.15,21.78,28.15l-1.22,14.52-7.2,3c-.38,0,5.71,25.85,5.71,25.85l42.06,1,13.63-27.61-7.73-1.91Z" style="fill:#bf6259"></path><path d="M356.43,220.62a5.15,5.15,0,0,0-1.5-3.31,5.28,5.28,0,0,0-6.33-.9,7.05,7.05,0,0,0-3.21,6.36h0a6.36,6.36,0,0,0,4.34,3,6.15,6.15,0,0,0,.85.1,5.78,5.78,0,0,0,4-1.2A5.09,5.09,0,0,0,356.43,220.62Z" style="fill:#93453d"></path><path d="M326.79,193.2a3.13,3.13,0,0,0,2.93,3.24,3,3,0,0,0,3.3-2.73,3.12,3.12,0,0,0-2.92-3.24A3,3,0,0,0,326.79,193.2Z" style="fill:#263238"></path><path d="M326.18,184.45c.37.42,2.79-1.27,6.16-1.16s5.78,1.86,6.16,1.46c.19-.18-.19-.93-1.24-1.74a8.66,8.66,0,0,0-4.92-1.68,8.25,8.25,0,0,0-4.92,1.44C326.36,183.53,326,184.26,326.18,184.45Z" style="fill:#263238"></path><path d="M345.11,211.6c0-.19-2.06-.61-5.44-1.14-.86-.12-1.67-.31-1.8-.9a4.36,4.36,0,0,1,.65-2.53l2.73-6.48c3.8-9.21,6.58-16.8,6.21-17s-3.76,7.2-7.56,16.42l-2.62,6.51a5,5,0,0,0-.55,3.36,2.19,2.19,0,0,0,1.38,1.3,5.67,5.67,0,0,0,1.45.24C343,211.72,345.09,211.79,345.11,211.6Z" style="fill:#263238"></path><path d="M341.63,251.37a62,62,0,0,0,32.92-7.77s-9.13,17.48-33.48,14.49Z" style="fill:#93453d"></path><path d="M355,214.22c-.55-.05-.66,3.6-3.86,6.11s-7.09,2-7.13,2.5c-.06.22.85.73,2.49.82a9.12,9.12,0,0,0,5.94-1.88,7.9,7.9,0,0,0,3-5.13C355.58,215.12,355.2,214.2,355,214.22Z" style="fill:#263238"></path><path d="M327.9,171.87c.54.84,3.14.36,6.14.7s5.48,1.2,6.16.48c.31-.35,0-1.16-1-2a9.09,9.09,0,0,0-4.83-1.86,9,9,0,0,0-5.08.91C328.11,170.73,327.67,171.47,327.9,171.87Z" style="fill:#263238"></path><path d="M364.27,195.4a3.13,3.13,0,0,1-3.22,2.95,3,3,0,0,1-3-3,3.13,3.13,0,0,1,3.21-2.95A3,3,0,0,1,364.27,195.4Z" style="fill:#263238"></path><path d="M372.2,187.1c-.41.38-2.66-1.53-6-1.74s-5.93,1.3-6.27.86c-.17-.19.28-.9,1.4-1.61a8.66,8.66,0,0,1,5.06-1.2,8.22,8.22,0,0,1,4.76,1.9C372.1,186.17,372.4,186.93,372.2,187.1Z" style="fill:#263238"></path><path d="M375.87,177.26c-.71.72-3.25-.25-6.37-.49s-5.79.13-6.34-.71c-.25-.41.22-1.14,1.42-1.79a9.71,9.71,0,0,1,5.27-.91,9.58,9.58,0,0,1,5,1.88C375.88,176.09,376.19,176.9,375.87,177.26Z" style="fill:#263238"></path><path d="M392.09,206.81c.05-1.81,2.28-6,4.08-6.26,4.81-.61,13.44,0,13.16,12.19-.37,16.64-17,12.83-17,12.36S391.89,213.09,392.09,206.81Z" style="fill:#bf6259"></path><path d="M397,219.12c.08-.05.29.21.77.45a3,3,0,0,0,2.17.09c1.77-.61,3.31-3.36,3.46-6.36a9.55,9.55,0,0,0-.72-4.17,3.33,3.33,0,0,0-2.13-2.27,1.49,1.49,0,0,0-1.73.75c-.23.46-.13.8-.22.83s-.35-.29-.2-1a1.81,1.81,0,0,1,.68-1,2.15,2.15,0,0,1,1.61-.39,4.07,4.07,0,0,1,3,2.65,9.8,9.8,0,0,1,.9,4.66c-.18,3.35-2,6.44-4.39,7.09a3.16,3.16,0,0,1-2.64-.5C397.06,219.52,397,219.15,397,219.12Z" style="fill:#93453d"></path><path d="M317.15,175.05c3.42-2,5.65-4.8,5.56-8.76,2.21.73,4.55-2.08,5.91-4s3-2.81,2.95-5.14a2.63,2.63,0,0,1,.2-1.34c.36-.63,1.16-.81,1.85-1a11.14,11.14,0,0,0,7.57-7.53,23.45,23.45,0,0,0,11.34,2.22,9,9,0,0,0,15.26-.21,8.09,8.09,0,0,0,5.29,4.14A23.7,23.7,0,0,0,380,154a9.54,9.54,0,0,0,6,11c.58.2,1.26.4,1.52,1a2.48,2.48,0,0,1-.31,1.85,7.51,7.51,0,0,0,4.74,9.71,5.6,5.6,0,0,0,.25,8.78c.59.39,1.37.85,1.26,1.55a1.68,1.68,0,0,1-.39.7c-1.29,1.6-2.58,3.36-2.79,5.41s1.11,4.4,3.17,4.55a5.31,5.31,0,0,0-2.22,3.58c-.07,1.45,1.35,3,2.71,2.48.58-.2,8.91-1.59,9.29-2.07,4.9-6.25-.82-13.49-1.05-21.42a51.64,51.64,0,0,0-6.52-22.68,38,38,0,0,0-5.67-8.19,49.92,49.92,0,0,0-8.95-7c-4.12-2.74-8.37-5.48-13.15-6.76-8.91-2.38-18.34.6-26.82,4.22a39.32,39.32,0,0,0-9.19,5.06,35.3,35.3,0,0,0-7.91,9.72c-3.12,5.2-5.76,10.83-6.52,16.85" style="fill:#263238"></path><path d="M314.06,169.13a6.54,6.54,0,0,1,.95-1.76c.37-.54.89-1.17,1.38-2a7.61,7.61,0,0,0,1-3.08,24.09,24.09,0,0,0,.05-4.11,18.36,18.36,0,0,1,.28-4.94,13.81,13.81,0,0,1,4.47-7.46,19.8,19.8,0,0,1,2.69-1.87,10.29,10.29,0,0,0,2.59-2.11,13.18,13.18,0,0,0,1.67-3.08A22.36,22.36,0,0,1,340,127.68a20.15,20.15,0,0,1,4.05-1.39,17.73,17.73,0,0,1,4.38-.35,18.92,18.92,0,0,1,2.24.24c.74.14,1.47.32,2.2.47a10.72,10.72,0,0,0,4.44.15c1.5-.25,3-.74,4.53-1.08a29.75,29.75,0,0,1,4.74-.69,29.4,29.4,0,0,1,4.87.11,25.45,25.45,0,0,1,4.85,1,16.47,16.47,0,0,1,8.21,5.78c.19.29.39.57.59.84l-.27-.11a19.33,19.33,0,0,1,21.91,15l-.13-.17a50.85,50.85,0,0,1,5.73,3.26,17.51,17.51,0,0,1,4.63,4.4,11.51,11.51,0,0,1,2,5.81,7.84,7.84,0,0,1-1.77,5.57v-.27a13.73,13.73,0,0,1,3.56,8.65,14.14,14.14,0,0,1-2,8.21,14.72,14.72,0,0,1-1.15,1.62c-.43.49-.85.95-1.2,1.44a3.66,3.66,0,0,0-.64,1.62,11,11,0,0,0,0,1.72,27,27,0,0,1-.37,6.31,13,13,0,0,1-1.79,4.75,8,8,0,0,1-2.67,2.62c-.87.54-1.64.74-2.07,1a3,3,0,0,0-.62.49,1.82,1.82,0,0,1,.59-.54c.42-.32,1.19-.54,2-1.08a8.21,8.21,0,0,0,2.58-2.61,13.39,13.39,0,0,0,1.71-4.7,27.78,27.78,0,0,0,.31-6.25,11.75,11.75,0,0,1,0-1.78,4,4,0,0,1,.68-1.75,19.19,19.19,0,0,1,1.21-1.49,12.65,12.65,0,0,0,1.11-1.57,13.81,13.81,0,0,0,1.9-8,13.39,13.39,0,0,0-3.49-8.4l-.13-.14.13-.14a7.44,7.44,0,0,0,1.64-5.28,10.91,10.91,0,0,0-1.92-5.57,17.26,17.26,0,0,0-4.52-4.28,53.05,53.05,0,0,0-5.69-3.22l-.1,0,0-.12a18.82,18.82,0,0,0-21.33-14.56l-.16,0-.1-.14-.57-.81a16,16,0,0,0-7.95-5.61,25.34,25.34,0,0,0-4.75-1,29.56,29.56,0,0,0-4.79-.11,28.76,28.76,0,0,0-4.66.68c-1.53.32-3,.81-4.56,1.07a11.38,11.38,0,0,1-2.33.17,13.3,13.3,0,0,1-2.29-.33c-.74-.15-1.46-.33-2.19-.47a19.72,19.72,0,0,0-2.17-.24,17.36,17.36,0,0,0-4.27.34,19,19,0,0,0-4,1.34,21.87,21.87,0,0,0-10.66,10.82,14.06,14.06,0,0,1-1.74,3.16,10.79,10.79,0,0,1-2.69,2.17,18.61,18.61,0,0,0-2.66,1.83,12.78,12.78,0,0,0-2.08,2.22,13.59,13.59,0,0,0-2.33,5,18.27,18.27,0,0,0-.32,4.87,23.3,23.3,0,0,1-.1,4.15,7.81,7.81,0,0,1-1.09,3.13c-.52.82-1,1.43-1.43,2a10.27,10.27,0,0,0-.8,1.25C314.13,169,314.07,169.14,314.06,169.13Z" style="fill:#455a64"></path><path d="M377.2,129.05s-.43-.27-1.23-.69a11,11,0,0,0-3.59-1.17,10.51,10.51,0,0,0-5.49.62,10.87,10.87,0,0,0-5.12,4.35,8.92,8.92,0,0,0-.88,1.85,2.1,2.1,0,0,0,.06,1.76l.39.58-.66-.21a6.89,6.89,0,0,0-5.17.45,6.62,6.62,0,0,0-2.92,3,7.42,7.42,0,0,0-.73,2.72c-.05.67,0,1,0,1s0-.09-.07-.26a4.73,4.73,0,0,1-.06-.78,6.93,6.93,0,0,1,3.63-6.08,7.24,7.24,0,0,1,5.5-.54l-.27.37a2.54,2.54,0,0,1-.14-2.18,9.76,9.76,0,0,1,.93-2,11.15,11.15,0,0,1,5.38-4.52,10.49,10.49,0,0,1,5.72-.54,10.23,10.23,0,0,1,3.63,1.35,6.57,6.57,0,0,1,.86.6C377.12,128.94,377.21,129,377.2,129.05Z" style="fill:#455a64"></path><path d="M403.58,149s-.18.24-.6.58a11.85,11.85,0,0,1-1.92,1.25,8.1,8.1,0,0,1-3.35.89,6,6,0,0,1-4.09-1.38l.37-.05-.51.67c-.18.22-.39.42-.59.64a10.39,10.39,0,0,1-8.21,2.82,9,9,0,0,1-2.61-.68,3.06,3.06,0,0,1-.85-.49,14.44,14.44,0,0,0,3.49.82,10.45,10.45,0,0,0,3.81-.46,10,10,0,0,0,4-2.37l.56-.6q.24-.33.48-.63l.17-.22.2.18a5.61,5.61,0,0,0,3.75,1.3,8,8,0,0,0,3.22-.74C402.64,149.71,403.53,148.92,403.58,149Z" style="fill:#455a64"></path><path d="M411.88,164.69s0,.11-.05.31a2.82,2.82,0,0,1-.39.79,4.48,4.48,0,0,1-2.74,1.7,8.49,8.49,0,0,1-4.73-.67,26.82,26.82,0,0,1-2.6-1.12,4.53,4.53,0,0,1-2.23-2.16l-.09-.27.39.13a19,19,0,0,1-5,2.8,8.49,8.49,0,0,1-4.69.34,6.15,6.15,0,0,1-2.83-1.4,3.38,3.38,0,0,1-.58-.64c-.12-.16-.17-.24-.16-.25s.29.29.86.74a6.35,6.35,0,0,0,2.78,1.2,8.47,8.47,0,0,0,4.47-.42,19.59,19.59,0,0,0,4.88-2.78l.27-.19.12.33.08.22a4.06,4.06,0,0,0,2,1.92,27.44,27.44,0,0,0,2.52,1.12,8.36,8.36,0,0,0,4.5.75,4.39,4.39,0,0,0,2.65-1.47A6.24,6.24,0,0,0,411.88,164.69Z" style="fill:#455a64"></path><path d="M431.57,105.87s-.29,0-.8.11a3.84,3.84,0,0,0-1.89,1.14,5.19,5.19,0,0,0-1.35,3.14,14.83,14.83,0,0,0,.48,4.56l.05.27-.28,0a9.41,9.41,0,0,0-5.8,1.58,7.35,7.35,0,0,0-3.34,5.72,6.85,6.85,0,0,0,2.25,5.62l.54.45-.71,0a8.59,8.59,0,0,0-6.39,2.58,8.22,8.22,0,0,0-2.29,5,9,9,0,0,0,.45,3.69c.29.83.54,1.24.5,1.26s-.08-.09-.2-.29a5.33,5.33,0,0,1-.46-.91,8.59,8.59,0,0,1-.59-3.78,8.43,8.43,0,0,1,2.29-5.3,9,9,0,0,1,6.71-2.77l-.16.43a7.28,7.28,0,0,1-2.44-6,7.52,7.52,0,0,1,1.1-3.55,8.44,8.44,0,0,1,2.47-2.54,9.79,9.79,0,0,1,6.1-1.6l-.22.25a15.16,15.16,0,0,1-.4-4.68,5.35,5.35,0,0,1,1.52-3.27,3.76,3.76,0,0,1,2-1.09,2.77,2.77,0,0,1,.61,0A.71.71,0,0,1,431.57,105.87Z" style="fill:#455a64"></path><path d="M460.11,142.84s-.08.06-.27.15a8.36,8.36,0,0,1-.84.35,11.64,11.64,0,0,1-3.38.66,13.13,13.13,0,0,1-5.2-.79,12.61,12.61,0,0,1-5.5-3.85l.38,0a10.58,10.58,0,0,1-7.65,4.9,8,8,0,0,1-8.14-4.66h.43a6.63,6.63,0,0,1-2.09,2.76,8.72,8.72,0,0,1-2.77,1.46,12,12,0,0,1-5.08.37,22.51,22.51,0,0,1-3.25-.63,6.27,6.27,0,0,1-1.13-.34,7,7,0,0,1,1.16.2,30.23,30.23,0,0,0,3.25.49,12.26,12.26,0,0,0,4.92-.46,7.22,7.22,0,0,0,4.56-4l.21-.56.22.55a7.59,7.59,0,0,0,7.67,4.34,10.2,10.2,0,0,0,7.3-4.65l.17-.27.21.25a12.36,12.36,0,0,0,5.26,3.77,13.17,13.17,0,0,0,5.06.87A15.47,15.47,0,0,0,460.11,142.84Z" style="fill:#455a64"></path><path d="M441.91,166.62s0,.13-.2.3a1.84,1.84,0,0,1-1,.39,7.59,7.59,0,0,1-3.65-.73,9,9,0,0,1-4.12-3.67,9.23,9.23,0,0,1-1-6.65v0l.35.28a10.82,10.82,0,0,1-6.7.72,12.09,12.09,0,0,1-5-2.34,13.69,13.69,0,0,1-2.58-2.66,5.49,5.49,0,0,1-.71-1.16,20.16,20.16,0,0,0,3.5,3.53,11.92,11.92,0,0,0,4.86,2.17,10.51,10.51,0,0,0,6.4-.71l.45-.21-.1.5v0a8.77,8.77,0,0,0,4.79,9.89,8,8,0,0,0,3.49.85A1.65,1.65,0,0,0,441.91,166.62Z" style="fill:#455a64"></path><path d="M395.19,105.33a14.38,14.38,0,0,0-.91,5.09,11.41,11.41,0,0,0,10.14,11l.31,0-.1.28a14.83,14.83,0,0,0-.78,5.36,15,15,0,0,0,.82,4.25,10.94,10.94,0,0,0,.63,1.5,1.28,1.28,0,0,0,.86.71.83.83,0,0,0,.68-.19c.12-.11.14-.21.16-.2s0,.11-.1.26a.89.89,0,0,1-.76.29,1.39,1.39,0,0,1-1.05-.74,10,10,0,0,1-.72-1.53,14.51,14.51,0,0,1-.2-9.86l.2.32a11.5,11.5,0,0,1-10.44-11.52,11.22,11.22,0,0,1,.65-3.81,8.43,8.43,0,0,1,.42-1A1.35,1.35,0,0,1,395.19,105.33Z" style="fill:#455a64"></path><path d="M401.87,224.62s.29.17.62.68a4.26,4.26,0,0,1-1.28,5.69,4.78,4.78,0,0,1-4.55.34,5.07,5.07,0,0,1-2.72-3.67,5,5,0,0,1,.82-3.65,5.38,5.38,0,0,1,1.88-1.69,2.3,2.3,0,0,1,.86-.31c0,.05-.28.17-.76.49a5.54,5.54,0,0,0-1.67,1.71,4.65,4.65,0,0,0,1.81,6.65,4.34,4.34,0,0,0,4.07-.28,3.81,3.81,0,0,0,1.76-2.86,4.3,4.3,0,0,0-.4-2.32C402.05,224.89,401.83,224.65,401.87,224.62Z" style="fill:#263238"></path><path d="M293.06,283.54l40-15.82s14.12,21.83,30.87,21.83c19.21,0,26.19-23.66,26.19-23.66L431.29,282l-18.42,96S438,433,438,446.1v19.74H294L306.91,410s-9.13-66.58-9.74-70.79C297.73,317.42,293.06,283.54,293.06,283.54Z" style="fill:#ED4F37"></path><path d="M431.29,282c3.43,2.58,14.48,4.38,19.48,18.23,4.91,13.6,1.31,72.13,3.19,86.91s6.82,78.7,6.82,78.7h-40.6l-27-77.51Z" style="fill:#ED4F37"></path><path d="M293.06,283.54S284.42,286,277.9,307c-3.44,11.07-14.54,38.33-14.54,38.33l-7.55-19.87-38,24.1s18.41,42.49,20.7,47c3.67,7.3,13.25,21.07,25.78,20.81s21.19-8.93,25.45-17,15.56-28.06,15.56-28.06Z" style="fill:#ED4F37"></path><path d="M295.61,315a1.17,1.17,0,0,1,.05.24c0,.2.07.43.11.72.09.68.22,1.6.38,2.77.3,2.44.74,5.91,1.28,10.17,1,8.64,2.46,20.5,4,33.6s2.93,25,4,33.61c.48,4.27.87,7.74,1.15,10.19.12,1.17.21,2.1.28,2.77,0,.3.05.53.07.73a.73.73,0,0,1,0,.24s0-.08-.06-.24-.06-.42-.11-.71c-.09-.68-.22-1.6-.38-2.77-.32-2.44-.77-5.91-1.32-10.17-1.09-8.59-2.57-20.46-4.1-33.59s-2.88-25-3.88-33.61c-.47-4.28-.85-7.75-1.11-10.2-.12-1.17-.21-2.1-.28-2.78q0-.44-.06-.72A.81.81,0,0,1,295.61,315Z" style="fill:#263238"></path><path d="M438,465.84a1.68,1.68,0,0,1-.12-.33c-.08-.24-.17-.56-.3-1-.26-.88-.64-2.13-1.11-3.74-1-3.29-2.33-8-4-13.87-3.37-11.8-8.05-28.15-13.29-46.51l0-.05v-.06c.32-2.12.67-4.38,1-6.66,3.14-20.41,6-38.88,8.05-52.28,1.05-6.67,1.9-12.07,2.5-15.84.3-1.85.53-3.29.7-4.3.08-.47.15-.84.2-1.12a1.74,1.74,0,0,1,.08-.38,1.89,1.89,0,0,1,0,.39c0,.28-.08.65-.15,1.12-.14,1-.34,2.47-.6,4.32-.56,3.77-1.36,9.19-2.34,15.86-2,13.41-4.81,31.89-7.89,52.31-.35,2.28-.69,4.54-1,6.66v-.11l13.13,46.55c1.63,5.88,2.95,10.62,3.86,13.92.44,1.61.78,2.88,1,3.77.11.41.19.73.26,1A1.91,1.91,0,0,1,438,465.84Z" style="fill:#263238"></path><path d="M392.14,386.91a1.89,1.89,0,0,1-.5.22l-1.44.52c-1.26.44-3.1,1.05-5.37,1.78-4.55,1.46-10.87,3.34-17.91,5.2s-13.48,3.33-18.16,4.3c-2.34.49-4.23.87-5.55,1.1l-1.51.26a1.82,1.82,0,0,1-.54.06,2.32,2.32,0,0,1,.52-.16l1.49-.36,5.51-1.25c4.65-1.07,11.06-2.6,18.1-4.45s13.37-3.69,17.94-5.05l5.41-1.62,1.48-.43A3.1,3.1,0,0,1,392.14,386.91Z" style="fill:#263238"></path><path d="M401.74,381.87a3.45,3.45,0,0,1-.7,0h-2c-1.74,0-4.26-.06-7.37-.17-6.21-.23-14.79-.77-24.22-1.83s-17.92-2.45-24-3.62c-3.06-.58-5.52-1.09-7.22-1.47l-1.95-.45a3.72,3.72,0,0,1-.67-.19,3,3,0,0,1,.69.09l2,.35,7.24,1.31c6.12,1.07,14.61,2.39,24,3.46s18,1.66,24.18,2l7.35.34,2,.09A3.51,3.51,0,0,1,401.74,381.87Z" style="fill:#263238"></path><path d="M277.9,383.49a2.85,2.85,0,0,1-.26-.58l-.63-1.7L274.7,375c-2-5.26-4.71-12.52-7.8-20.51S261,339.27,259,334c-1-2.58-1.78-4.69-2.37-6.22-.25-.7-.46-1.26-.62-1.7a2.87,2.87,0,0,1-.18-.61,3.15,3.15,0,0,1,.28.57c.19.43.42,1,.71,1.66l2.52,6.16c2.11,5.21,5,12.43,8.07,20.43s5.79,15.28,7.66,20.58c.93,2.65,1.66,4.8,2.15,6.3l.54,1.72A2.76,2.76,0,0,1,277.9,383.49Z" style="fill:#263238"></path><path d="M282,378.23a6.78,6.78,0,0,1-.54-1.16c-.31-.76-.77-1.86-1.36-3.21a108,108,0,0,0-5.13-10.27,106.83,106.83,0,0,0-6.24-9.63c-.86-1.19-1.58-2.15-2.08-2.8a6,6,0,0,1-.72-1.06,6.77,6.77,0,0,1,.88.93c.55.62,1.31,1.54,2.21,2.7a84.35,84.35,0,0,1,6.4,9.6,82.14,82.14,0,0,1,5,10.39c.55,1.37,1,2.49,1.21,3.28A5.4,5.4,0,0,1,282,378.23Z" style="fill:#263238"></path><g style="opacity:0.30000000000000004"><path d="M318.61,372.9l.48,1.36c1.59,2,3.83,2.38,6.28,3.08,22.28,6.39,51.94,8.34,74.81,4.5C370.44,381.27,343,376.23,318.61,372.9Z"></path></g><g style="opacity:0.30000000000000004"><path d="M297,326.93l6.06,51.42c-6.37-15.54-9.45-33.85-6-50.29"></path></g><path d="M430.85,325.45s1.41,43.57-2.12,61.46l-5.37,27.32-3.92-13.88Z" style="opacity:0.30000000000000004"></path><path d="M396.21,269.12a.8.8,0,0,1,0,.22L396,270c-.09.3-.2.65-.33,1.06a10.85,10.85,0,0,1-.51,1.42,33.32,33.32,0,0,1-4.79,8.35c-.58.84-1.34,1.6-2.06,2.45s-1.61,1.62-2.47,2.45a39.56,39.56,0,0,1-6.2,4.5A33.81,33.81,0,0,1,346,291a39.2,39.2,0,0,1-6.4-4.22c-.9-.79-1.79-1.54-2.57-2.33s-1.55-1.54-2.18-2.35a33.62,33.62,0,0,1-5.15-8.13,12,12,0,0,1-.58-1.4l-.37-1-.22-.65a.63.63,0,0,1-.06-.22s0,.06.11.2l.27.63q.17.43.42,1a10.24,10.24,0,0,0,.61,1.37,35.32,35.32,0,0,0,5.25,8c.63.8,1.42,1.51,2.18,2.31s1.67,1.5,2.57,2.28a39.18,39.18,0,0,0,6.34,4.13,33.6,33.6,0,0,0,33.19-.75,39,39,0,0,0,6.15-4.41c.86-.81,1.72-1.58,2.46-2.39a31.28,31.28,0,0,0,2.07-2.4,34.68,34.68,0,0,0,4.89-8.21,11,11,0,0,0,.56-1.4c.14-.4.27-.74.37-1l.24-.63C396.17,269.19,396.2,269.11,396.21,269.12Z" style="fill:#263238"></path></g></svg>