<svg xmlns="http://www.w3.org/2000/svg" viewBox="0 0 500 500"><g id="freepik--background-complete--inject-10"><path d="M116.19,232.92c-4.58,4.41-12,4.22-18.37,2.61a60.11,60.11,0,0,1-37.77-30.22c-2.75-5.32-4.72-11.46-3.24-17.05a18.4,18.4,0,0,1,7.41-10c8.19-5.87,19.47-6.78,29.4-3.41s18.51,10.68,24.56,19.48c4,5.83,7,12.55,7.3,19.46s-2.65,14-8.4,17.38" style="fill:#ebebeb"></path><path d="M129.48,218.8a84.63,84.63,0,0,1-20.74-34.54c-1.73-5.59-2.88-11.46-2.34-17.29s2.9-11.65,7.29-15.52,11-5.47,16.35-3.19c4.84,2,8.09,6.76,9.86,11.7,3.17,8.84,2.37,18.57,1.06,27.87a88,88,0,0,1-4,17.75,37.15,37.15,0,0,1-9.76,15.17" style="fill:#f5f5f5"></path><path d="M142.17,232.14c3.74.65,7.55-1.38,10-4.28s3.75-6.58,4.9-10.19a90.2,90.2,0,0,0,4.42-20.95,45.19,45.19,0,0,0-3.18-21c-1.56-3.6-4.45-7.36-8.37-7.22-3.52.13-6.05,3.34-8,6.31-4.66,7.25-8.78,15-10.7,23.39s-1.45,17.58,2.67,25.15c1.73,3.16,4.2,6.1,7.54,7.46s7.63.8,9.89-2" style="fill:#fafafa"></path><path d="M127.18,240a42.71,42.71,0,0,0-23.06-19.75,47.64,47.64,0,0,0-30.49-.36c-3.79,1.21-7.54,3-10.21,5.9s-4.08,7.3-2.69,11c1.56,4.17,6,6.46,10.08,8.13a113.05,113.05,0,0,0,21.7,6.31c6.66,1.24,13.56,3.32,20,1.38s13.17-6,14.62-12.63" style="fill:#e0e0e0"></path><path d="M101.33,216c.16-.73,3.72-.54,7.94.42s7.52,2.32,7.35,3.05-3.72.53-7.94-.43S101.16,216.74,101.33,216Z" style="fill:#e0e0e0"></path><path d="M116.49,219.14c-.48.57-3.61-1.25-7-4.06s-5.74-5.55-5.26-6.13,3.6,1.25,7,4.06S117,218.56,116.49,219.14Z" style="fill:#e0e0e0"></path><path d="M110,207.36c.55-.49,2.77,1.1,4.71,3.75s2.81,5.25,2.18,5.63-2.48-1.49-4.35-4S109.4,207.85,110,207.36Z" style="fill:#e0e0e0"></path><path d="M111.9,200.87c.64-.38,3,2.47,5.38,6.38s3.7,7.38,3.06,7.76-3-2.47-5.38-6.38S111.26,201.25,111.9,200.87Z" style="fill:#e0e0e0"></path><path d="M119.69,199.72c.75-.05,1.56,3.17,2,7.18s.32,7.33-.42,7.44-1.82-3.08-2.26-7.15S119,199.76,119.69,199.72Z" style="fill:#e0e0e0"></path><path d="M126.65,201.18c.73.15.6,3.22-.28,6.84s-2.19,6.4-2.91,6.2-.59-3.26.29-6.84S125.92,201,126.65,201.18Z" style="fill:#e0e0e0"></path><path d="M112,221.8c0,.15-5.77.94-12.91,1.78s-13,1.38-13,1.23,5.76-.94,12.91-1.77S112,221.65,112,221.8Z" style="fill:#e0e0e0"></path><path d="M113,220.88a10.48,10.48,0,0,1-2.56-.09c-1.58-.14-3.75-.4-6.13-.78s-4.53-.84-6.07-1.21a11.34,11.34,0,0,1-2.46-.73,12.69,12.69,0,0,1,2.54.35l6.07,1.05,6.09.94A14.07,14.07,0,0,1,113,220.88Z" style="fill:#e0e0e0"></path><path d="M115.56,218.5c-.06.14-5.19-2-11.47-4.74s-11.31-5.09-11.25-5.23,5.2,2,11.47,4.74S115.62,218.37,115.56,218.5Z" style="fill:#e0e0e0"></path><path d="M114.85,217a6.72,6.72,0,0,1-1.16-.83c-.73-.56-1.76-1.4-3-2.45-2.52-2.11-5.92-5.12-9.52-8.6s-6.72-6.78-8.91-9.22c-1.1-1.22-2-2.23-2.55-2.93a6.6,6.6,0,0,1-.87-1.14,8,8,0,0,1,1,1l2.68,2.81c2.26,2.37,5.41,5.62,9,9.1s7,6.51,9.4,8.69l2.9,2.58A7.88,7.88,0,0,1,114.85,217Z" style="fill:#e0e0e0"></path><path d="M120.68,214.34c-.12.09-4.35-5.4-9.44-12.26s-9.12-12.5-9-12.59,4.35,5.4,9.44,12.26S120.8,214.25,120.68,214.34Z" style="fill:#e0e0e0"></path><path d="M115.05,181.14a5.56,5.56,0,0,1,.5,1.14c.3.74.69,1.82,1.15,3.16.91,2.69,2.06,6.46,3.09,10.67s1.76,8.09,2.18,10.9c.22,1.4.37,2.54.45,3.33a5,5,0,0,1,.08,1.24,5.12,5.12,0,0,1-.28-1.21c-.17-.89-.38-2-.62-3.3-.53-2.79-1.3-6.63-2.33-10.83s-2.11-8-2.94-10.68c-.38-1.27-.71-2.35-1-3.22A6.3,6.3,0,0,1,115.05,181.14Z" style="fill:#e0e0e0"></path><path d="M125.82,185.77a3.12,3.12,0,0,1,.16,1c.07.66.14,1.6.2,2.77.13,2.34.22,5.58.15,9.15s-.28,6.81-.5,9.14c-.11,1.17-.21,2.11-.3,2.76a3.44,3.44,0,0,1-.2,1,29.92,29.92,0,0,1,.12-3.79c.13-2.33.27-5.56.34-9.12s0-6.79,0-9.13A33.38,33.38,0,0,1,125.82,185.77Z" style="fill:#e0e0e0"></path><path d="M131.9,187.62a18.5,18.5,0,0,1-.17,3.51c-.2,2.17-.56,5.16-1.09,8.43s-1.16,6.23-1.67,8.34a19.24,19.24,0,0,1-1,3.39,27.26,27.26,0,0,1,.59-3.47c.41-2.13,1-5.08,1.51-8.34s.95-6.24,1.24-8.39A26.79,26.79,0,0,1,131.9,187.62Z" style="fill:#e0e0e0"></path><path d="M81.8,225a1.84,1.84,0,0,0,.61,1.85,2.39,2.39,0,0,0,2.21.14,2.81,2.81,0,0,0,1.79-1.59,2.19,2.19,0,0,0-1.55-2.68A3,3,0,0,0,81.8,225" style="fill:#e0e0e0"></path><path d="M85.41,191.25a1.81,1.81,0,0,0,.6,1.82,2.34,2.34,0,0,0,2.16.14,2.75,2.75,0,0,0,1.75-1.56A2.15,2.15,0,0,0,88.41,189a3,3,0,0,0-3,2.23" style="fill:#e0e0e0"></path><path d="M112.66,182.62a1.78,1.78,0,0,0,.59,1.81,2.31,2.31,0,0,0,2.17.14,2.72,2.72,0,0,0,1.74-1.55,2.15,2.15,0,0,0-1.51-2.63,2.94,2.94,0,0,0-3,2.23" style="fill:#e0e0e0"></path><path d="M90.21,207.83a1.25,1.25,0,0,0,.41,1.25,1.65,1.65,0,0,0,1.5.1,1.9,1.9,0,0,0,1.2-1.08,1.48,1.48,0,0,0-1-1.81,2,2,0,0,0-2.07,1.54" style="fill:#e0e0e0"></path><path d="M123.86,185.71a1.27,1.27,0,0,0,.41,1.25,1.59,1.59,0,0,0,1.5.1A1.91,1.91,0,0,0,127,186a1.47,1.47,0,0,0-1-1.81,2,2,0,0,0-2.07,1.53" style="fill:#e0e0e0"></path><path d="M130,187.56a1.23,1.23,0,0,0,.41,1.25,1.57,1.57,0,0,0,1.49.1,1.91,1.91,0,0,0,1.2-1.07,1.47,1.47,0,0,0-1-1.81,2,2,0,0,0-2.06,1.53" style="fill:#e0e0e0"></path><path d="M93,218.18a1.25,1.25,0,0,0,.41,1.25,1.6,1.6,0,0,0,1.49.1,1.89,1.89,0,0,0,1.21-1.08,1.49,1.49,0,0,0-1-1.81A2,2,0,0,0,93,218.18" style="fill:#e0e0e0"></path><path d="M99.86,188.58a1.25,1.25,0,0,0,.41,1.25,1.63,1.63,0,0,0,1.49.1,1.89,1.89,0,0,0,1.21-1.08,1.49,1.49,0,0,0-1-1.81,2,2,0,0,0-2.06,1.54" style="fill:#e0e0e0"></path><path d="M124.73,251.52c4.88-.6,9.88-2,13.55-5.24,3.33-2.95,5.25-7.19,6.43-11.48,1.8-6.52,1.88-14.14-2.43-19.36-3.45-4.19-9.21-6-14.61-5.56s-10.46,3-14.83,6.16-8,7.09-10.18,11.93-2.41,10.66.06,15.34,12.48,9.85,22,8.21" style="fill:#ebebeb"></path><path d="M371.12,148.57c-2.54,5.57-5.35,11.61-3.79,17.46-.6.65-1.27,1.4-2,2.23-3,3.38-6.89,8.14-11,13.57a54.47,54.47,0,0,0,4.28-13,27.87,27.87,0,0,0-1.09-16.1,24.7,24.7,0,0,0-4.35,30.6c-4,5.31-7.35,10.24-9.73,13.94l-.23.36c1.53-4.54,2.58-11.52,2.05-16.1a93.86,93.86,0,0,0-3.1-14,23.86,23.86,0,0,0,.78,30.55c-2.2,3.46-3.41,5.66-3.25,5.77s1.94-2.17,4.69-5.91l1.26-1.72c5.23,1.76,8.67,1.76,14-.06,5.49-1.87,10.48-4.92,15.42-7.94a24,24,0,0,0-26.72,4.32c2-2.78,4.35-5.89,6.83-9.18.6-.79,1.18-1.57,1.77-2.33a35.6,35.6,0,0,0,14.79-.73c5-1.51,9.68-4.79,12-9.5a23.37,23.37,0,0,0-16.24,1,48.57,48.57,0,0,0-5.64,2.82l4.37-5.65c.87-1.12,1.63-2.12,2.27-3a29.55,29.55,0,0,0,15.8-30.4A26.13,26.13,0,0,0,371.12,148.57Z" style="fill:#f5f5f5"></path><path d="M306,217.63c-3.47-2.12-4.55-6.73-4.59-10.95A38.49,38.49,0,0,1,314,178.39c2.85-2.57,6.33-4.79,10-4.78a11.78,11.78,0,0,1,7.39,3c5,4.11,7.36,10.95,6.89,17.65s-3.61,13.19-8.08,18.37c-3,3.42-6.62,6.4-10.87,7.68s-9.1.63-12.12-2.38" style="fill:#ebebeb"></path><path d="M316.94,223.57a54.28,54.28,0,0,1,18-18.46,28.85,28.85,0,0,1,10.33-4.25,15,15,0,0,1,10.8,2,10.24,10.24,0,0,1,4.62,9.61c-.47,3.33-2.87,6.1-5.64,8-5,3.4-11.11,4.48-17.08,5.18a56,56,0,0,1-11.64.42,23.79,23.79,0,0,1-11-3.58" style="fill:#f5f5f5"></path><path d="M310.74,233.59a7.12,7.12,0,0,0,4.27,5.49,18.83,18.83,0,0,0,7.11,1.38,57.46,57.46,0,0,0,13.68-.67,28.85,28.85,0,0,0,12.5-5.38c2-1.55,3.83-3.95,3.11-6.35-.65-2.16-3.05-3.21-5.2-3.91-5.25-1.7-10.71-3-16.22-2.82s-11.12,1.95-15.14,5.74a10.27,10.27,0,0,0-3.4,5.88,5.56,5.56,0,0,0,2.86,5.79" style="fill:#fafafa"></path><path d="M303.44,225.58a27.31,27.31,0,0,0,8.48-17.48,30.48,30.48,0,0,0-4.73-18.94,14.6,14.6,0,0,0-5.31-5.36,7.12,7.12,0,0,0-7.26.13c-2.33,1.63-3,4.73-3.39,7.56a72.8,72.8,0,0,0-.39,14.46c.31,4.32.14,8.93,2.4,12.63s5.86,7.18,10.2,7" style="fill:#e0e0e0"></path><path d="M314.09,205.68c.48,0,.94,2.22,1,5s-.22,5-.7,5.05-.93-2.22-1-5S313.61,205.7,314.09,205.68Z" style="fill:#e0e0e0"></path><path d="M314.62,215.58c-.43-.21.18-2.44,1.37-5s2.51-4.46,2.94-4.25-.18,2.43-1.37,5S315.05,215.78,314.62,215.58Z" style="fill:#e0e0e0"></path><path d="M320.85,209.62c.4.26-.23,1.9-1.56,3.53s-2.79,2.59-3.13,2.26.52-1.78,1.79-3.34S320.45,209.35,320.85,209.62Z" style="fill:#e0e0e0"></path><path d="M325.19,209.77c.34.33-1,2.29-3.08,4.36s-4,3.5-4.31,3.16,1-2.29,3.08-4.36S324.85,209.44,325.19,209.77Z" style="fill:#e0e0e0"></path><path d="M327.16,214.41c.15.45-1.71,1.48-4.12,2.4s-4.49,1.38-4.68.94,1.61-1.63,4.07-2.56S327,214,327.16,214.41Z" style="fill:#e0e0e0"></path><path d="M327.38,219c0,.48-1.89.9-4.28.94s-4.32-.32-4.31-.79,1.93-.9,4.29-.94S327.36,218.48,327.38,219Z" style="fill:#e0e0e0"></path><path d="M312.24,213.24c-.09,0-1.52-3.41-3.19-7.7s-3-7.8-2.88-7.83,1.52,3.41,3.2,7.7S312.33,213.21,312.24,213.24Z" style="fill:#e0e0e0"></path><path d="M313,213.72a7.89,7.89,0,0,1-.36-1.61c-.17-1-.36-2.38-.5-3.92s-.22-2.94-.24-3.95a7,7,0,0,1,.05-1.64,8,8,0,0,1,.19,1.62c.1,1.14.21,2.47.34,3.94s.29,2.79.41,3.92A8.58,8.58,0,0,1,313,213.72Z" style="fill:#e0e0e0"></path><path d="M314.86,214.9c-.09,0,.39-3.54,1.07-7.87s1.32-7.83,1.42-7.82-.39,3.54-1.08,7.87S315,214.91,314.86,214.9Z" style="fill:#e0e0e0"></path><path d="M315.66,214.22a5,5,0,0,1,.33-.86c.23-.54.58-1.31,1-2.26.89-1.9,2.2-4.5,3.77-7.29s3.11-5.27,4.27-7c.57-.88,1.05-1.58,1.4-2.06A5.13,5.13,0,0,1,327,194a4.18,4.18,0,0,1-.45.8l-1.31,2.11c-1.1,1.79-2.6,4.27-4.17,7.06s-2.9,5.35-3.85,7.22c-.46.89-.83,1.64-1.13,2.22A5.18,5.18,0,0,1,315.66,214.22Z" style="fill:#e0e0e0"></path><path d="M318.27,217.39c-.08-.06,2.64-3.57,6.06-7.83s6.26-7.68,6.33-7.62-2.64,3.56-6.06,7.83S318.34,217.45,318.27,217.39Z" style="fill:#e0e0e0"></path><path d="M337.91,208.52a4,4,0,0,1-.62.49c-.41.3-1,.72-1.78,1.22-1.51,1-3.66,2.33-6.1,3.65s-4.72,2.4-6.39,3.12c-.84.37-1.52.64-2,.82a3.83,3.83,0,0,1-.76.25,4.26,4.26,0,0,1,.7-.37l1.95-.92c1.64-.78,3.89-1.88,6.33-3.2s4.59-2.6,6.13-3.55l1.83-1.13A3,3,0,0,1,337.91,208.52Z" style="fill:#e0e0e0"></path><path d="M336.8,215.94a3.11,3.11,0,0,1-.6.26c-.4.15-1,.34-1.68.57-1.43.46-3.42,1-5.64,1.58s-4.26.93-5.74,1.18c-.74.12-1.34.21-1.76.25a2.88,2.88,0,0,1-.65.05,18.3,18.3,0,0,1,2.36-.54c1.47-.31,3.49-.74,5.7-1.27s4.22-1.08,5.66-1.48A18.27,18.27,0,0,1,336.8,215.94Z" style="fill:#e0e0e0"></path><path d="M336.64,220a12.11,12.11,0,0,1-2.21.47c-1.37.23-3.28.49-5.4.69s-4,.29-5.43.32a14,14,0,0,1-2.25,0,16.07,16.07,0,0,1,2.24-.2c1.39-.09,3.3-.23,5.41-.42s4-.43,5.4-.6A17.73,17.73,0,0,1,336.64,220Z" style="fill:#e0e0e0"></path><path d="M305.35,195.06a1.18,1.18,0,0,0-1.05.67,1.53,1.53,0,0,0,.27,1.4,1.81,1.81,0,0,0,1.27.84,1.4,1.4,0,0,0,1.41-1.39,1.91,1.91,0,0,0-1.9-1.52" style="fill:#e0e0e0"></path><path d="M326.84,191.81a1.14,1.14,0,0,0-1,.66,1.49,1.49,0,0,0,.26,1.36,1.75,1.75,0,0,0,1.25.83,1.36,1.36,0,0,0,1.38-1.36,1.86,1.86,0,0,0-1.86-1.49" style="fill:#e0e0e0"></path><path d="M336.61,207.27a1.17,1.17,0,0,0-1,.67,1.51,1.51,0,0,0,.26,1.36,1.78,1.78,0,0,0,1.25.83,1.37,1.37,0,0,0,1.38-1.36,1.88,1.88,0,0,0-1.86-1.5" style="fill:#e0e0e0"></path><path d="M317.35,197.47a.81.81,0,0,0-.71.46,1,1,0,0,0,.19.94,1.19,1.19,0,0,0,.86.57,1,1,0,0,0,.95-.94,1.3,1.3,0,0,0-1.29-1" style="fill:#e0e0e0"></path><path d="M336.51,214.72a.8.8,0,0,0-.71.45,1,1,0,0,0,.19.94,1.16,1.16,0,0,0,.86.57.94.94,0,0,0,.95-.93,1.3,1.3,0,0,0-1.29-1" style="fill:#e0e0e0"></path><path d="M336.35,218.78a.78.78,0,0,0-.7.46,1,1,0,0,0,.18.94,1.22,1.22,0,0,0,.86.57.94.94,0,0,0,.95-.94,1.29,1.29,0,0,0-1.29-1" style="fill:#e0e0e0"></path><path d="M311.39,200.85a.8.8,0,0,0-.71.46,1,1,0,0,0,.18.94,1.23,1.23,0,0,0,.86.57,1,1,0,0,0,1-.94,1.31,1.31,0,0,0-1.29-1" style="fill:#e0e0e0"></path><path d="M330.84,200.32a.79.79,0,0,0-.71.45,1,1,0,0,0,.18.95,1.24,1.24,0,0,0,.86.57,1,1,0,0,0,1-.94,1.31,1.31,0,0,0-1.29-1" style="fill:#e0e0e0"></path><path d="M295.91,225.94c1.16,2.93,2.82,5.8,5.44,7.54a14.91,14.91,0,0,0,8.16,2.11c4.33.06,9.06-1.13,11.59-4.64a11,11,0,0,0,1.07-10,19,19,0,0,0-6.23-8.17,19.49,19.49,0,0,0-9-4.37,11.45,11.45,0,0,0-9.48,2.53c-2.5,2.28-4.08,9.32-1.51,15" style="fill:#ebebeb"></path></g><g id="freepik--Character--inject-10"><path d="M217.74,60.09c0-6.27-3.38-12.08-7.6-16.71-7-7.66-17.06-13.06-27.4-12.34a27.88,27.88,0,0,0-23.86,18.49,28.3,28.3,0,0,0,7.65,29.25,27.95,27.95,0,0,0,42.37-5.62C214.14,71.5,217.71,65.72,217.74,60.09Z" style="fill:#263238"></path><path d="M198.07,68.63s0-.66.07-1.83a33.78,33.78,0,0,0-.17-5,30.68,30.68,0,0,0-18.52-25.09,32.6,32.6,0,0,0-4.69-1.63,14.46,14.46,0,0,1-1.77-.48,1.67,1.67,0,0,1,.47,0c.31.06.77.1,1.34.24a27.13,27.13,0,0,1,4.79,1.49A30.11,30.11,0,0,1,198.33,61.8a27.56,27.56,0,0,1,0,5c0,.59-.13,1-.17,1.35A1.69,1.69,0,0,1,198.07,68.63Z" style="fill:#455a64"></path><path d="M197.11,55.36a9.42,9.42,0,0,1-1.19,1.08c-.4.34-.89.75-1.48,1.18s-1.25,1-2,1.47a52.4,52.4,0,0,1-5.6,3.34,60.84,60.84,0,0,1-7.34,3.15,62,62,0,0,1-7.73,2,55,55,0,0,1-6.47.82c-.92.08-1.77.08-2.5.1s-1.37,0-1.89,0a9.42,9.42,0,0,1-1.61-.11,8.55,8.55,0,0,1,1.61-.09c.51,0,1.15,0,1.88-.07s1.56-.07,2.48-.18a60.87,60.87,0,0,0,6.41-.92,65,65,0,0,0,7.65-2.08,64.13,64.13,0,0,0,7.3-3.08,61.22,61.22,0,0,0,5.61-3.22c.79-.48,1.46-1,2.07-1.39s1.11-.79,1.52-1.11A12.42,12.42,0,0,1,197.11,55.36Z" style="fill:#455a64"></path><path d="M201.07,36.33a5.91,5.91,0,0,1,.7,1.1,11.11,11.11,0,0,1,.71,1.36c.24.55.56,1.15.8,1.87a21.16,21.16,0,0,1,.78,2.33,27.36,27.36,0,0,1,.65,2.76,32.39,32.39,0,0,1,.47,6.47,32.6,32.6,0,0,1-.94,6.41c-.28,1-.52,1.88-.85,2.7a22.77,22.77,0,0,1-.95,2.28,18.52,18.52,0,0,1-.94,1.8,10.36,10.36,0,0,1-.81,1.3,6.12,6.12,0,0,1-.77,1.05c-.1-.06,1-1.58,2.18-4.3a22.47,22.47,0,0,0,.88-2.27c.31-.82.54-1.73.8-2.67a35.41,35.41,0,0,0,.88-6.32,33.92,33.92,0,0,0-.42-6.37,27.45,27.45,0,0,0-.6-2.72c-.2-.85-.46-1.62-.7-2.33C201.94,38,201,36.38,201.07,36.33Z" style="fill:#455a64"></path><path d="M197.49,61.55a8.9,8.9,0,0,1-.86,1.27,13.1,13.1,0,0,1-1.12,1.4A22.51,22.51,0,0,1,193.88,66l-1,1c-.36.32-.76.62-1.16,1A30.53,30.53,0,0,1,189,69.82a35.22,35.22,0,0,1-6.79,3.36,35.6,35.6,0,0,1-7.4,1.73,32.25,32.25,0,0,1-3.3.19c-.52,0-1,0-1.51,0l-1.38-.1a20.15,20.15,0,0,1-2.36-.3,11.23,11.23,0,0,1-1.75-.37,8.47,8.47,0,0,1-1.47-.43c0-.12,2.12.51,5.61.73l1.36.07c.48,0,1,0,1.49,0a32.33,32.33,0,0,0,3.26-.24,37.24,37.24,0,0,0,7.27-1.74,36.85,36.85,0,0,0,6.72-3.28,30.9,30.9,0,0,0,2.66-1.88c.4-.32.81-.61,1.16-.93l1-.92C196.17,63.3,197.39,61.48,197.49,61.55Z" style="fill:#455a64"></path><path d="M180.44,79.89a4.24,4.24,0,0,1-.28.75,9.49,9.49,0,0,1-1.19,2,12,12,0,0,1-7.11,4.31,11.46,11.46,0,0,1-5.82-.34,13.3,13.3,0,0,1-5.62-3.64A14,14,0,0,1,157,76.39a15.32,15.32,0,0,1,.48-7.92,16.82,16.82,0,0,1,3.8-6.36l.08.42a12,12,0,0,1-5.09-4.24,12.61,12.61,0,0,1-2.13-5.71,11,11,0,0,1,.75-5.41,12.22,12.22,0,0,1,2.64-3.9A12,12,0,0,1,163.33,40a8.48,8.48,0,0,1,2.42-.25,23.59,23.59,0,0,0-2.37.42,12.26,12.26,0,0,0-8.13,7.15,10.66,10.66,0,0,0-.68,5.21,12.05,12.05,0,0,0,2.1,5.48,11.23,11.23,0,0,0,4.88,4l.34.15-.26.27A16.48,16.48,0,0,0,158,68.63a14.84,14.84,0,0,0-.49,7.65,13.61,13.61,0,0,0,3.29,6.32,12.94,12.94,0,0,0,5.4,3.56,11.27,11.27,0,0,0,5.62.39,12,12,0,0,0,7-4.08A15.05,15.05,0,0,0,180.44,79.89Z" style="fill:#263238"></path><path d="M287.81,97.05c6.49,3.31,7.65,12,7.12,19.32s-1.73,15.33,2.57,21.22c2,2.73,5.13,4.95,5.57,8.3.71,5.41-5.88,8.92-7.41,14.16-1.9,6.5,4.39,12.33,6.21,18.85a15.29,15.29,0,0,1-9.49,17.94c3.47-2.63,4.14-7.74,3-11.94s-3.79-7.81-5.92-11.62-3.83-8.18-2.93-12.44c1-4.79,5.21-9,4.27-13.82-.54-2.74-2.67-4.86-4-7.31-3.65-6.68-1.17-14.86.8-22.21s2.93-16.32-2.63-21.52" style="fill:#263238"></path><path d="M191.75,158.5A71.63,71.63,0,0,1,179.86,95c3-10.15,11.77-22.47,20.83-28,7.49-4.55,20.95-7.31,29.71-7.65,11.73-.46,38.81,2.35,50.17,25.95" style="fill:#F52C55"></path><path d="M288.56,134.24C303,101,283.21,80.67,270.36,73.39c-7.66-4.33-16.75-5.24-25.55-5.45s-17.46.18-25.86,2.37-16.47,6.27-22.4,12.62c-10.52,11.28-12.93,28-11.94,43.36a120.84,120.84,0,0,0,15.33,51.79c1.15,2,2.46,4.11,4.51,5.23s5,.88,6.22-1.13" style="fill:#263238"></path><path d="M263.86,217.27l-.52-17.52s20.47-3.4,24.72-30.11c2.11-13.29,1.44-35.07.32-52.88a28.21,28.21,0,0,0-31.12-26.3l-46.35,4.9a9.4,9.4,0,0,0-8.4,9.53h0l6.16,114.68a27.61,27.61,0,0,0,27.58,26.14h0A27.61,27.61,0,0,0,263.86,217.27Z" style="fill:#b78876"></path><path d="M279.48,131.26a3.41,3.41,0,0,1-3.3,3.45,3.27,3.27,0,0,1-3.53-3.09,3.43,3.43,0,0,1,3.3-3.46A3.28,3.28,0,0,1,279.48,131.26Z" style="fill:#263238"></path><path d="M283.65,128.09c-.42.45-3-1.47-6.71-1.46s-6.39,1.85-6.79,1.4c-.19-.2.24-1,1.42-1.86a9.36,9.36,0,0,1,5.43-1.68,9,9,0,0,1,5.34,1.72C283.48,127.08,283.86,127.89,283.65,128.09Z" style="fill:#263238"></path><path d="M243.38,131.94a3.43,3.43,0,0,1-3.31,3.46,3.28,3.28,0,0,1-3.53-3.09,3.43,3.43,0,0,1,3.3-3.46A3.29,3.29,0,0,1,243.38,131.94Z" style="fill:#263238"></path><path d="M247.41,128.78c-.42.45-3-1.47-6.71-1.46s-6.39,1.85-6.79,1.4c-.19-.2.24-1,1.42-1.87a9.43,9.43,0,0,1,5.43-1.67,9,9,0,0,1,5.34,1.72C247.23,127.77,247.62,128.58,247.41,128.78Z" style="fill:#263238"></path><path d="M260.79,156.12c0-.21,2.28-.6,6-1.08.94-.1,1.83-.28,2-.92a4.8,4.8,0,0,0-.63-2.8l-2.78-7.16c-3.87-10.21-6.67-18.6-6.26-18.76s3.89,8,7.75,18.21l2.67,7.21c.36,1.07,1,2.28.49,3.69a2.37,2.37,0,0,1-1.55,1.38,5.77,5.77,0,0,1-1.6.22C263.12,156.31,260.8,156.33,260.79,156.12Z" style="fill:#263238"></path><path d="M263.34,199.75a68,68,0,0,1-35.78-9.54s8.68,18.35,35.42,15.85Z" style="fill:#aa6550"></path><path d="M249.07,122.33c-.36,1-4,.52-8.37,1s-7.82,1.7-8.4.81c-.25-.43.35-1.38,1.76-2.35a14.67,14.67,0,0,1,12.78-1.41C248.43,121.06,249.23,121.85,249.07,122.33Z" style="fill:#263238"></path><path d="M282.3,117.42c-.65.84-3.19,0-6.25-.07s-5.64.56-6.23-.31c-.26-.43.14-1.27,1.27-2.06a9.06,9.06,0,0,1,10.06.31C282.23,116.15,282.58,117,282.3,117.42Z" style="fill:#263238"></path><path d="M288.38,116.76c-4.67-22.78-11-13.77-18.2-24.64-10.39,10.53-34.33,22.66-48.92,25a9.6,9.6,0,0,0-4.28,1.37c-2.25,1.67-2.42,4.91-2.41,7.71,0,7.91-.13,15.9-1.95,23.6s-5.45,15.17-11.41,20.37c-8.81-18.57-9.69-40.17-5.75-60.34,1.61-8.24,4.34-16.87,10.9-22.11,4.7-3.74,10.77-5.25,16.68-6.33,14.6-2.68,30.05-3.33,44,1.88s24.69,11.63,26.55,26.36" style="fill:#263238"></path><path d="M187.42,100.76a14.36,14.36,0,0,0,3,1.63,25.85,25.85,0,0,0,3.71,1.49l2.37.82,2.72.69a68.59,68.59,0,0,0,13.66,1.87,88.76,88.76,0,0,0,16.84-1.09,86.68,86.68,0,0,0,16.3-4.45,71.45,71.45,0,0,0,6.71-3.07l2.95-1.58,2.59-1.68a35.92,35.92,0,0,0,4.27-3.15l1.69-1.37,1.29-1.3A15,15,0,0,0,267.76,87c-.23-.24-3.49,3.4-10.08,7.46l-2.59,1.57-2.94,1.47c-2,1.1-4.3,1.9-6.65,2.9a92.23,92.23,0,0,1-16,4.25,95.25,95.25,0,0,1-16.56,1.2,74.89,74.89,0,0,1-13.47-1.53C191.85,102.77,187.55,100.47,187.42,100.76Z" style="fill:#455a64"></path><path d="M195,82.76a11.82,11.82,0,0,0,2.3,1.88,19.29,19.29,0,0,0,3,1.84l1.91,1.06,2.26.95c6.32,2.76,15.79,4.63,26.25,4.69a118.67,118.67,0,0,0,26.51-3c3.33-.75,6-1.51,7.8-2.11A11.28,11.28,0,0,0,267.76,87c-.07-.23-4.13.9-10.79,2.15a139.65,139.65,0,0,1-26.28,2.49c-10.31-.06-19.59-1.72-25.87-4.16S195.16,82.49,195,82.76Z" style="fill:#455a64"></path><path d="M277.09,77c0-.18-.93-.36-2.36,0a9.67,9.67,0,0,0-6.94,8.38c-.08,1.48.26,2.34.44,2.31.42,0,.26-3.53,2.9-6.61S277.16,77.38,277.09,77Z" style="fill:#455a64"></path><path d="M209.23,117.78A9.27,9.27,0,0,0,212,118c1.79,0,4.38,0,7.59-.08,6.37-.26,15.38-.9,24.72-4.27s16.51-9.41,20.18-14.77a28.45,28.45,0,0,0,3.59-6.76,8.61,8.61,0,0,0,.69-2.71c-.29-.12-1.28,3.82-5.14,8.84s-10.77,10.7-19.84,14-17.94,4.09-24.26,4.62S209.22,117.56,209.23,117.78Z" style="fill:#263238"></path><path d="M171.31,183.05a4.59,4.59,0,0,0,1.26,2.53A9.81,9.81,0,0,0,179.5,189a15.07,15.07,0,0,0,10.7-4,9.6,9.6,0,0,0,3.27-6.2A6.8,6.8,0,0,0,190,172a5.38,5.38,0,0,0-7.08,2.51,4.59,4.59,0,0,0,.28,3.88,5.75,5.75,0,0,0,2.62,2.52,8.47,8.47,0,0,0,6.35.1,11.45,11.45,0,0,0,4.59-2.94,12.16,12.16,0,0,0,3.4-6.92,5.59,5.59,0,0,0-.17-2.82c-.13,0,0,1-.41,2.72a12.28,12.28,0,0,1-3.57,6.26,10.64,10.64,0,0,1-4.22,2.52,7.31,7.31,0,0,1-5.36-.16c-1.62-.76-2.88-2.89-2.15-4.6s3.28-2.57,5.09-1.71a5.4,5.4,0,0,1,2.64,5.25,8.33,8.33,0,0,1-2.75,5.29,14.34,14.34,0,0,1-9.71,4,9.63,9.63,0,0,1-6.53-2.71C171.78,184,171.44,183,171.31,183.05Z" style="fill:#263238"></path><path d="M243.49,61a27.64,27.64,0,0,0-10.55-28.93,3.53,3.53,0,0,0-2.92-.88,3.58,3.58,0,0,0-1.91,2.31c-2.4,6.1-2.27,13.4,1.3,18.9s7.88,10.74,14.08,8.6" style="fill:#F52C55"></path><path d="M241.72,60.17c.07-4.88,5-8.38,9.52-10.29s9.6-1.81,14.42-1c.89,2.9-.38,6.15-2.57,8.25A17.19,17.19,0,0,1,255,61a48.48,48.48,0,0,1-8.09,1.18c-2.49-.46-3.41.5-4.48-1.79" style="fill:#F52C55"></path><path d="M307.16,175.33a4.77,4.77,0,0,1-.88.37,8.84,8.84,0,0,1-2.71.45,9.72,9.72,0,0,1-4.24-.91,8.9,8.9,0,0,1-4.14-4,9.72,9.72,0,0,1-.85-6.88,13.72,13.72,0,0,1,4.54-6.56c1.05-.94,2.17-1.84,3.28-2.8a18.53,18.53,0,0,0,3-3.2,12.25,12.25,0,0,0,2-4.08,8,8,0,0,0,.2-2.28,5.8,5.8,0,0,0-.66-2.19,8,8,0,0,0-3.48-3,32.71,32.71,0,0,1-4.12-2.22,7.27,7.27,0,0,1-1.68-1.64,6.2,6.2,0,0,1-.94-2.1,11.16,11.16,0,0,1-.06-4.38c.21-1.4.54-2.73.8-4a27.25,27.25,0,0,0,.52-3.8,29.89,29.89,0,0,0-3.49-16.3,25.22,25.22,0,0,0-1.38-2.35l-.38-.6a1,1,0,0,1-.12-.22,1.07,1.07,0,0,1,.16.19l.43.57a23.39,23.39,0,0,1,1.47,2.31,29.45,29.45,0,0,1,3.37,9.47,30,30,0,0,1,.37,7,27.77,27.77,0,0,1-.5,3.86c-.26,1.31-.57,2.64-.77,4a10.75,10.75,0,0,0,.06,4.19,6.1,6.1,0,0,0,.87,1.93,7.26,7.26,0,0,0,1.56,1.52,34,34,0,0,0,4.07,2.17,8.3,8.3,0,0,1,3.69,3.19,6.15,6.15,0,0,1,.73,2.39,8.68,8.68,0,0,1-.22,2.45,12.53,12.53,0,0,1-2.06,4.25,18.21,18.21,0,0,1-3.14,3.29c-1.12,1-2.24,1.85-3.28,2.78a13.33,13.33,0,0,0-4.44,6.31,9.31,9.31,0,0,0,.76,6.6,8.52,8.52,0,0,0,3.93,3.87,9.81,9.81,0,0,0,4.12,1A11.29,11.29,0,0,0,307.16,175.33Z" style="fill:#263238"></path><path d="M254.43,54a29,29,0,0,0-6.14,1.84A30.58,30.58,0,0,0,243,59.34a5,5,0,0,1,1.26-1.44,15.5,15.5,0,0,1,8.3-3.9A5.27,5.27,0,0,1,254.43,54Z" style="fill:#263238"></path><path d="M253.81,57.67c0,.15-2.56.28-5.66.88s-5.54,1.43-5.59,1.29a22.92,22.92,0,0,1,11.25-2.17Z" style="fill:#263238"></path><path d="M237.29,43.84a3.25,3.25,0,0,1,2.17,1.31A14.21,14.21,0,0,1,242,50.7a18.6,18.6,0,0,1,.55,6.09,7.43,7.43,0,0,1-.46,2.49,28.24,28.24,0,0,0-.59-8.45,15.76,15.76,0,0,0-2.36-5.44A6.35,6.35,0,0,0,237.29,43.84Z" style="fill:#263238"></path><path d="M235.74,55a7.08,7.08,0,0,1,6.18,4.67,21.08,21.08,0,0,0-2.71-2.84A21,21,0,0,0,235.74,55Z" style="fill:#263238"></path><path d="M249.93,163a7.52,7.52,0,0,1,2.54-1.39,2.62,2.62,0,0,1,2.67.71c.38.47.55,1.15,1.09,1.44s1.3,0,1.95.14a2.17,2.17,0,0,1,1.53,2.47,5.63,5.63,0,0,1-1.52,2.78,8.63,8.63,0,0,1-3.68,2.8,5.16,5.16,0,0,1-6.27-3.25c-.79-2.5.85-6,3.35-6.77" style="fill:#F52C55"></path><path d="M249.94,158.67c.6,0,.61,4,4,6.81s7.69,2.4,7.72,3c.06.25-.95.78-2.75.83A9.94,9.94,0,0,1,252.5,167a8.68,8.68,0,0,1-3.13-5.71C249.22,159.64,249.67,158.65,249.94,158.67Z" style="fill:#263238"></path><path d="M304.22,380.13s30.1,15.71,46.56,8.43c28.47-12.59-1.13-87.31-1.13-87.31l-29.26,33.4Z" style="fill:#b78876"></path><path d="M210.9,211.5s-26.44,19.44-36.42,56.06c-9.27,34,2,57,15.28,103.3l6.72,54.06L281,426l32.83-6-2.69-45.22s21.73-17.52,20.33-30.13-52.38-89-52.38-89c-7.39-9.3-11.22-19-8.46-29.5Z" style="fill:#F52C55"></path><g style="opacity:0.4"><path d="M193.88,288.92c-2.3,9.13-.87,18.95,2.9,27.57s9.77,16.11,16.58,22.6c11.92,11.35,26.67,19.91,42.7,23.64s33.35,2.48,48.29-4.42c2-.92,4.24-2.32,4.4-4.53.26-3.34-4.07-4.81-7.39-5.28a169.55,169.55,0,0,1-108.29-61.88"></path></g><path d="M206.59,320.3c7.06,9.12,19.63,18,31,22.88,4.45,1.92,20.28,10.9,25.57,9.66A24.75,24.75,0,0,0,274,346.62c6.91-6.32,11.49-14.87,14.29-23.81s3.82-17.21,4.64-26.54c.2-2.22.81-6.25,1.14-8.44.69-4.58-9.12-7.92-13.92-7.72-10.21.42-10.54-15-17.6-22.37-8-8.38-20.66-11.59-32-9.21s-21.26,9.93-27.69,19.58C202.89,268.11,185.3,292.82,206.59,320.3Z" style="fill:#F52C55"></path><path d="M275.77,280.63s-.06-.07-.16-.22-.24-.42-.41-.7L273.67,277c-1.34-2.34-3.25-5.74-5.88-9.76a66.27,66.27,0,0,0-10.73-12.93,37.84,37.84,0,0,0-18-9.39,27.3,27.3,0,0,0-10.55.09,33.54,33.54,0,0,0-9.25,3.47,47.7,47.7,0,0,0-12.85,10.74,97.16,97.16,0,0,0-6.86,9.07c-.73,1.1-1.31,2-1.73,2.58l-.45.66c-.1.15-.16.23-.17.22a.92.92,0,0,1,.12-.25l.42-.69c.36-.61.91-1.5,1.64-2.63a90.54,90.54,0,0,1,6.75-9.2A47.3,47.3,0,0,1,219,248.08a33.84,33.84,0,0,1,9.38-3.55,27.73,27.73,0,0,1,10.75-.1A38.07,38.07,0,0,1,257.38,254a64.92,64.92,0,0,1,10.72,13.09c2.6,4.06,4.46,7.49,5.74,9.86.62,1.16,1.1,2.08,1.45,2.74l.37.72A2.15,2.15,0,0,1,275.77,280.63Z" style="fill:#263238"></path><path d="M266.84,305.44a5,5,0,0,1-.17-1.09,29,29,0,0,1-.12-3,37.6,37.6,0,0,1,1.4-9.83,36.46,36.46,0,0,1,1.85-5.16,15.51,15.51,0,0,1,2.24-3.9,4.85,4.85,0,0,1,2.54-1.67,3.16,3.16,0,0,1,.83-.09c.19,0,.28,0,.28,0s-.39,0-1.06.25a4.84,4.84,0,0,0-2.31,1.71,16.71,16.71,0,0,0-2.08,3.85,39,39,0,0,0-1.79,5.11,42.87,42.87,0,0,0-1.53,9.7C266.81,303.87,266.93,305.44,266.84,305.44Z" style="fill:#263238"></path><path d="M273.2,296a8.09,8.09,0,0,1-.46-2.29,21.7,21.7,0,0,1,.13-5.62,21.07,21.07,0,0,1,1.65-5.39,8,8,0,0,1,1.17-2c.17.08-1.63,3.2-2.3,7.49S273.39,296,273.2,296Z" style="fill:#263238"></path><path d="M275.62,280.73l.25-.09.75-.22a28.87,28.87,0,0,1,2.91-.62,17.32,17.32,0,0,1,4.73-.08,17.9,17.9,0,0,1,6,1.9,6.64,6.64,0,0,1,2.44,2.76,11.75,11.75,0,0,1,1.06,3.83,16,16,0,0,1-.07,4.25c-.19,1.43-.3,2.91-.44,4.43s-.37,3.09-.58,4.67-.41,3.2-.62,4.85c-.42,3.3-.88,6.71-1.53,10.19a65.9,65.9,0,0,1-2.65,10,48,48,0,0,1-4.14,8.68,47,47,0,0,1-10.23,12.59,27,27,0,0,1-9.6,5.21l-1.66.43c-.49.11-.91.16-1.25.22l-.76.12a1.08,1.08,0,0,1-.27,0l.26-.07.75-.17c.34-.08.75-.15,1.23-.27l1.64-.47a27.69,27.69,0,0,0,9.43-5.31,47.12,47.12,0,0,0,10-12.55,47.72,47.72,0,0,0,4.08-8.6,67.38,67.38,0,0,0,2.62-9.9c.65-3.46,1.1-6.86,1.53-10.16.22-1.64.43-3.26.64-4.85s.45-3.13.59-4.64.26-3,.47-4.45a15.59,15.59,0,0,0,.09-4.14,11.17,11.17,0,0,0-1-3.71,6.21,6.21,0,0,0-2.27-2.62,17.8,17.8,0,0,0-5.82-1.92,17.19,17.19,0,0,0-4.66,0c-1.28.15-2.25.38-2.92.51l-.75.17A.78.78,0,0,1,275.62,280.73Z" style="fill:#263238"></path><g style="opacity:0.4"><path d="M199,221.48c-.2,3,1.86,5.85,4.44,7.46s5.63,2.25,8.59,2.91a270.13,270.13,0,0,1,49.5,16.2c1.64.72,3.77,1.38,5.05.12a4.52,4.52,0,0,0,1-2.84c.33-2.92-1.65-11.6,2.64-19.47,1.6-2.93-8.64,6.71-11.81,5.67-14-4.58-28-9.19-42.6-11.28-5.58-.81-11.48-1.2-16.66,1"></path></g><path d="M271.22,225.53s-19.08-16.89-62.87-22.83l-9.7,18.58,66.08,23.48C264.16,236.19,266.65,230.05,271.22,225.53Z" style="fill:#F52C55"></path><path d="M270.61,225.33a1.7,1.7,0,0,1-.2.32l-.64.88a29.88,29.88,0,0,0-2.13,3.54,28.28,28.28,0,0,0-3.08,14.28v.33l-.31-.12c-6.61-2.43-14.57-5.31-23.14-8.31-11.75-4.11-22.45-7.68-30.2-10.23l-9.18-3-2.49-.83-.64-.23-.22-.1a.82.82,0,0,1,.23,0l.66.18,2.52.73c2.19.66,5.35,1.63,9.24,2.85,7.78,2.46,18.49,6,30.25,10.09,8.58,3,16.53,5.92,23.12,8.39l-.29.22a28.08,28.08,0,0,1,3.3-14.42A21.44,21.44,0,0,1,270.61,225.33Z" style="fill:#263238"></path><g style="opacity:0.4"><path d="M275.69,280.73c-2.84-.48-7.12,6.47-8.12,10.67s-1.5,8.73-4.11,12.18a19.89,19.89,0,0,0-2.31,3.13,3.18,3.18,0,0,0,.35,3.63c.95.89,2.94.34,2.92-1a36.24,36.24,0,0,0-2.25,9.47,2.92,2.92,0,0,0,.64,2.6c1,.8,2.46.06,3.41-.78,5.11-4.5,7-11.64,7.58-18.43s-2.85-13.93,1.82-21.51"></path></g><path d="M222.72,334.9a2.39,2.39,0,0,1-.57-.16,16.3,16.3,0,0,1-1.58-.59,25.71,25.71,0,0,1-5.36-3.12,41,41,0,0,1-6.67-6.33,77.24,77.24,0,0,1-6.61-9.1,41.71,41.71,0,0,1-6.44-19.27,37.58,37.58,0,0,1,0-6.19c0-.73.14-1.3.19-1.68a2.17,2.17,0,0,1,.11-.58s0,.81-.1,2.27a43.3,43.3,0,0,0,6.66,25.17,82,82,0,0,0,6.54,9.07,42.58,42.58,0,0,0,6.53,6.35,28,28,0,0,0,5.22,3.23C222,334.58,222.74,334.85,222.72,334.9Z" style="fill:#263238"></path><path d="M233.73,234a20.69,20.69,0,0,1,.92,4.56,20.11,20.11,0,0,1,.39,4.62,21,21,0,0,1-.91-4.55A21.32,21.32,0,0,1,233.73,234Z" style="fill:#263238"></path><path d="M238.84,419.78a4.81,4.81,0,0,1-.12-.84c-.07-.6-.15-1.41-.26-2.43-.22-2.15-.53-5.18-.92-8.91-.8-7.52-2-17.89-3.86-29.29s-3.86-21.65-5.43-29.05c-.79-3.66-1.44-6.63-1.9-8.75-.21-1-.38-1.79-.51-2.38a4.83,4.83,0,0,1-.14-.84,4.35,4.35,0,0,1,.24.81c.15.59.36,1.37.61,2.36.52,2.05,1.23,5,2.06,8.72,1.67,7.39,3.76,17.64,5.59,29.05s3,21.8,3.71,29.34c.35,3.76.61,6.82.75,8.93l.16,2.43A5,5,0,0,1,238.84,419.78Z" style="fill:#263238"></path><path d="M407.14,200.88c-.6-1.61-2.12-2.7-2.93-4.21-1-1.77-1-4.2-2.71-5.29-1.53-1-3.66-.36-5.25-1.23s-2.28-2.91-4-3.33-3.26.94-4.9.65c-1.13-.21-2-1.14-3-1.65a5.65,5.65,0,0,0-5.72.79,12.42,12.42,0,0,0-3.58,4.84,51.23,51.23,0,0,1-2.65,5.48,8.4,8.4,0,0,1-3.4,2.69,11.17,11.17,0,0,1-.7-1c-5.84-9-11.35-11-14.33-10.85s-3.74,4.4-.95,6.21c2.31,1.51,5.44,5.25,7.62,8.08,1.73,2.25,1.81,4.8,2,7.63a188.75,188.75,0,0,1,.22,19.43l-19.2,76.38L293,296.27c-.67,26-8.68,48.29-27,56A433,433,0,0,0,333.69,370c22.79,3.92,55.53-3.31,59.31-40.22,3.64-35.41,10.23-104,10.23-104h-.08c1.2-6.37,2.7-14.45,3.45-19h0c.12-.37.22-.74.32-1.11A7.84,7.84,0,0,0,407.14,200.88Z" style="fill:#b78876"></path><path d="M369.31,199.49a8.53,8.53,0,0,0,.37,3.48,2.87,2.87,0,0,0,3.52,1.25,3.68,3.68,0,0,0,1.83-2,20.89,20.89,0,0,0,.75-2.71,17.28,17.28,0,0,1,4-6.25" style="fill:#b78876"></path><path d="M379.73,193.22c.06.06-.72.93-1.78,2.46a16.31,16.31,0,0,0-1.58,2.83c-.49,1.1-.56,2.49-1.15,3.88a4.13,4.13,0,0,1-1.35,1.74,2.86,2.86,0,0,1-2,.5,3.14,3.14,0,0,1-1.72-.74,2.63,2.63,0,0,1-.83-1.41,7.48,7.48,0,0,1-.14-2.25c.05-.5.13-.88.14-.74s-.06-.05,0,0v.16c0,.19,0,.39,0,.6a8.53,8.53,0,0,0,.28,2.16,2.48,2.48,0,0,0,2.25,1.76,2.42,2.42,0,0,0,1.67-.44,3.67,3.67,0,0,0,1.16-1.53c.55-1.26.64-2.68,1.19-3.85a13.83,13.83,0,0,1,1.72-2.86,18.6,18.6,0,0,1,1.46-1.7C379.48,193.39,379.7,193.2,379.73,193.22Z" style="fill:#996859"></path><path d="M383.17,354.36a1.35,1.35,0,0,1-.16.28l-.53.79a24.09,24.09,0,0,1-2.27,2.88,33,33,0,0,1-4.24,3.95,38.37,38.37,0,0,1-6.52,4.05,48.36,48.36,0,0,1-19.31,4.79c-7.53.39-15.81-.65-24.29-2.4-17-3.57-32.12-7.72-43-11-5.44-1.63-9.81-3-12.82-4l-3.46-1.18-.9-.32-.3-.12a1.14,1.14,0,0,1,.32.07l.91.27,3.49,1.09c3,.94,7.42,2.3,12.87,3.89,10.89,3.17,26,7.27,43,10.83,8.46,1.75,16.69,2.8,24.17,2.43A48.5,48.5,0,0,0,369.28,366a39.4,39.4,0,0,0,6.52-4,34.84,34.84,0,0,0,4.26-3.86,28.42,28.42,0,0,0,2.34-2.8l.56-.76A2.75,2.75,0,0,1,383.17,354.36Z" style="fill:#996859"></path><path d="M351.69,325.71a12.59,12.59,0,0,1-1.66-2c-1-1.3-2.22-3.14-3.5-5.25s-2.33-4.07-3-5.52a10.74,10.74,0,0,1-1-2.41,15.4,15.4,0,0,1,1.35,2.23c.79,1.4,1.9,3.33,3.17,5.43s2.48,4,3.36,5.31A14.41,14.41,0,0,1,351.69,325.71Z" style="fill:#996859"></path><path d="M357.16,320.69a11.74,11.74,0,0,1-2.4-1.28,49.61,49.61,0,0,1-10.11-8.31,11.8,11.8,0,0,1-1.71-2.1,19.49,19.49,0,0,1,2,1.85c1.2,1.16,2.88,2.72,4.84,4.34s3.83,3,5.2,3.91A17.25,17.25,0,0,1,357.16,320.69Z" style="fill:#996859"></path><path d="M318.14,329.32a22.06,22.06,0,0,0-.47-2.9,12,12,0,0,0-4.38-6.49,11.78,11.78,0,0,0-11.15-1.65,11.9,11.9,0,0,0-5.45,4.1,11.68,11.68,0,0,0,0,13.88,11.92,11.92,0,0,0,5.46,4.11,11.88,11.88,0,0,0,15.53-8.14,22,22,0,0,0,.47-2.91,4.59,4.59,0,0,1,0,.77,5.51,5.51,0,0,1-.07.93,10.5,10.5,0,0,1-.22,1.26,12.07,12.07,0,0,1-9.47,9,12.23,12.23,0,0,1-6.43-.5,12.36,12.36,0,0,1-5.7-4.25,12.18,12.18,0,0,1,0-14.49,12.36,12.36,0,0,1,5.7-4.25,12.23,12.23,0,0,1,6.43-.5,12.1,12.1,0,0,1,9.47,9,10.17,10.17,0,0,1,.22,1.26,5.51,5.51,0,0,1,.07.93A4.41,4.41,0,0,1,318.14,329.32Z" style="fill:#263238"></path><path d="M339.22,337.29c0,.14-4.88-.78-10.83-2.05s-10.76-2.41-10.73-2.55,4.88.77,10.83,2S339.25,337.15,339.22,337.29Z" style="fill:#263238"></path><path d="M331.72,341.33a42.83,42.83,0,0,1,3-10.91,39.68,39.68,0,0,1-1.35,5.49A39.59,39.59,0,0,1,331.72,341.33Z" style="fill:#263238"></path><path d="M342,296.68l-16.07-8H309.81s-11.5,7-11.8,9.41.06,13.47.18,14.73a3,3,0,0,0,6-.44c.19-4.24,1-12.37,1-12.37l.9,20.11a3.13,3.13,0,0,0,3,3h0a3.13,3.13,0,0,0,3.27-2.83l.32-11.8.68,15.25a3.39,3.39,0,0,0,3.39,3.25h0a3.4,3.4,0,0,0,3.39-3.25l.64-14.83.69,17.41a3.17,3.17,0,0,0,3.26,3h0a3.16,3.16,0,0,0,3.07-2.9l1.14-13.37a3.16,3.16,0,0,1,2.07-2.71l7-2.54c2.35-.86,4.13-1.21,5.79-2.65l.17-.7C344.88,300.62,344.74,298.06,342,296.68Z" style="fill:#b78876"></path><path d="M344.2,304.45s0,.16-.15.71h0a7.83,7.83,0,0,1-1.78,1.2,30.65,30.65,0,0,1-3.58,1.36l-5.07,1.88-1.49.54a7,7,0,0,0-1.5.66,3,3,0,0,0-1.07,1.27,4.92,4.92,0,0,0-.31,1.76c-.2,2.51-.43,5.24-.67,8.17-.12,1.47-.25,3-.38,4.56a3.36,3.36,0,0,1-3.61,2.94,3.4,3.4,0,0,1-2.32-1.21,3.44,3.44,0,0,1-.64-1.21,5.22,5.22,0,0,1-.16-1.34c-.07-1.75-.14-3.55-.22-5.38q-.22-5.52-.47-11.49h.47c-.13,3.06-.27,6.22-.4,9.45-.07,1.62-.14,3.25-.21,4.91a4,4,0,0,1-.74,2.49,3.64,3.64,0,0,1-2.25,1.4,3.63,3.63,0,0,1-4.21-2.69,6.39,6.39,0,0,1-.13-1.34l-.06-1.31-.12-2.62c-.16-3.51-.32-7.09-.48-10.71h.52c0,1.57-.09,3.25-.13,5s-.09,3.2-.13,4.78c0,.81,0,1.56-.1,2.4a3.39,3.39,0,0,1-5.91,1.57,3.52,3.52,0,0,1-.83-2.28c0-.77-.06-1.53-.1-2.29L305.19,300h.49q-.35,4-.66,7.88-.16,1.94-.33,3.81c0,.32,0,.62-.09.95l-.06.49-.16.48a3,3,0,0,1-1.21,1.54,3.35,3.35,0,0,1-3.67-.16,3.13,3.13,0,0,1-1.13-1.51,8.2,8.2,0,0,1-.2-1.8c-.1-2.32-.15-4.57-.19-6.75s-.06-4.28,0-6.31a5.75,5.75,0,0,1,.1-.78,2.33,2.33,0,0,1,.37-.72,8.31,8.31,0,0,1,1-1.12,26.44,26.44,0,0,1,2.17-1.86,97.22,97.22,0,0,1,8.33-5.62l0,0h0l11.9.07,3.12,0,.8,0,.27,0a1.52,1.52,0,0,1-.27,0l-.8,0-3.12,0-11.9.07.07,0a97,97,0,0,0-8.27,5.65,28.19,28.19,0,0,0-2.13,1.85c-.66.69-1.43,1.37-1.34,2.38-.1,2-.06,4.11,0,6.28s.11,4.43.22,6.74a7.52,7.52,0,0,0,.19,1.68,2.63,2.63,0,0,0,1,1.29,2.91,2.91,0,0,0,3.18.14,2.61,2.61,0,0,0,1-1.32l.13-.42.05-.44c.05-.28.06-.61.09-.92.11-1.26.21-2.53.32-3.82.21-2.58.42-5.21.65-7.9h.48c.26,5.63.53,11.52.8,17.6,0,.76.07,1.52.11,2.28a3,3,0,0,0,.7,2,2.87,2.87,0,0,0,5-1.32c.09-.72.06-1.56.1-2.34,0-1.58.08-3.17.13-4.78s.09-3.37.13-4.94h.52q.24,5.43.47,10.71l.12,2.62.06,1.3a6,6,0,0,0,.11,1.24,3.14,3.14,0,0,0,5.57,1.12,3.47,3.47,0,0,0,.64-2.21c.08-1.66.15-3.3.22-4.91.14-3.23.28-6.39.42-9.45h.47c.15,4,.3,7.82.44,11.49.07,1.83.13,3.63.2,5.38A5,5,0,0,0,322,327a3,3,0,0,0,5.8-.46c.14-1.56.27-3.07.4-4.54.26-2.93.5-5.66.72-8.17a5.37,5.37,0,0,1,.35-1.85,3.31,3.31,0,0,1,1.18-1.38,7.49,7.49,0,0,1,1.56-.67l1.49-.53,5.1-1.82a36.1,36.1,0,0,0,3.59-1.29,8.66,8.66,0,0,0,1.79-1.13h0C344.15,304.6,344.2,304.45,344.2,304.45Z" style="fill:#996859"></path><path d="M328.82,315c1.3-1.48,3.41-1.94,5.38-2a24.52,24.52,0,0,0,5.88-.48,7.93,7.93,0,0,0,5.5-7.3,1.38,1.38,0,0,0-.48-1.27c-.53-.32-1.18.09-1.68.46a19.53,19.53,0,0,1-4.86,2.68,56.62,56.62,0,0,0-6,2.16c-1.89,1-3.6,2.62-3.88,4.72" style="fill:#996859"></path><path d="M331.6,345.34a.82.82,0,0,1,0,.36,3,3,0,0,1-.32,1,4.89,4.89,0,0,1-3,2.31,12.9,12.9,0,0,1-5.65.36,14.05,14.05,0,0,1-6.37-2.67c-.25-.19-.48-.39-.7-.57l-.28-.22.3-.19a16.3,16.3,0,0,1,11.53-2.39,15,15,0,0,1,3.45,1,4.93,4.93,0,0,1,1.16.62,23.37,23.37,0,0,0-4.66-1.26,16.47,16.47,0,0,0-11.19,2.46l0-.41c.21.17.43.37.67.54a13.74,13.74,0,0,0,6.14,2.61,13,13,0,0,0,5.46-.23,4.83,4.83,0,0,0,2.93-2.06A5.23,5.23,0,0,0,331.6,345.34Z" style="fill:#263238"></path><path d="M321,345.69a26.38,26.38,0,0,1,5.13-.58,25.84,25.84,0,0,1,5.17-.06,26.41,26.41,0,0,1-5.14.58A24.89,24.89,0,0,1,321,345.69Z" style="fill:#263238"></path><path d="M338,360.49a.6.6,0,0,1,0,.33,2.55,2.55,0,0,1-.27.92,4.46,4.46,0,0,1-2.68,2.19,11.89,11.89,0,0,1-5.15.46,12.69,12.69,0,0,1-5.88-2.29c-.24-.16-.45-.34-.66-.5l-.27-.21.29-.21a15,15,0,0,1,10.47-2.44,13.56,13.56,0,0,1,3.17.85,4.2,4.2,0,0,1,1.07.54,23.33,23.33,0,0,0-4.28-1,15.09,15.09,0,0,0-10.13,2.51v-.41l.63.48a12.65,12.65,0,0,0,5.65,2.23,11.79,11.79,0,0,0,5-.33,4.41,4.41,0,0,0,2.63-1.94A5.34,5.34,0,0,0,338,360.49Z" style="fill:#263238"></path><path d="M328.37,361.05a42.63,42.63,0,0,1,9.38-.82,22.08,22.08,0,0,1-4.67.67A20.72,20.72,0,0,1,328.37,361.05Z" style="fill:#263238"></path><path d="M362.17,368.85a2,2,0,0,1-.56.11l-1.62.26c-1.4.23-3.41.69-6,.93a15,15,0,0,1-4.19-.17,21,21,0,0,1-4.65-1.27,11.94,11.94,0,0,1-4.35-3.11,15.85,15.85,0,0,1-2.85-5c-1.37-3.68-1.92-7.37-3.18-10.46a15.86,15.86,0,0,0-2.29-4.1,14.37,14.37,0,0,0-3-2.79,16,16,0,0,0-5.4-2.47c-1.38-.33-2.17-.39-2.16-.44a3.52,3.52,0,0,1,.57,0,13.76,13.76,0,0,1,1.63.23,15.49,15.49,0,0,1,5.57,2.36,14.55,14.55,0,0,1,3.12,2.83,15.64,15.64,0,0,1,2.39,4.19c1.31,3.15,1.88,6.86,3.23,10.46a15.63,15.63,0,0,0,2.74,4.82,11.49,11.49,0,0,0,4.16,3,21.24,21.24,0,0,0,4.53,1.29,15.71,15.71,0,0,0,4.1.23c2.52-.19,4.55-.6,6-.77.71-.09,1.26-.14,1.64-.16A3.52,3.52,0,0,1,362.17,368.85Z" style="fill:#263238"></path><path d="M335.84,354.05a12.14,12.14,0,0,0,4.28-1.71,9.32,9.32,0,0,0,3.21-3.74,9.6,9.6,0,0,0,.72-5.94c0-.21-.1-.41-.14-.6l.25.19a8.52,8.52,0,0,0-5.37,2,8.2,8.2,0,0,0-2.57,3.94,9.14,9.14,0,0,0-.38,3.19c.05.77.15,1.19.11,1.2a3.27,3.27,0,0,1-.3-1.18,8.28,8.28,0,0,1,.22-3.31,8.43,8.43,0,0,1,2.61-4.2,8.83,8.83,0,0,1,5.67-2.18h.21l.05.2c0,.2.11.42.15.64a9.91,9.91,0,0,1-.79,6.25,9.46,9.46,0,0,1-3.44,3.84,9.13,9.13,0,0,1-3.23,1.29A3.45,3.45,0,0,1,335.84,354.05Z" style="fill:#263238"></path><path d="M340.54,346a32.86,32.86,0,0,0-2.51,3.82,34.37,34.37,0,0,0-1.48,4.32,8.24,8.24,0,0,1,1-4.55A8.08,8.08,0,0,1,340.54,346Z" style="fill:#263238"></path><path d="M348.93,370.16a11,11,0,0,0,3.46-2.17,8.24,8.24,0,0,0,2.2-3.75,8.51,8.51,0,0,0-.3-5.27c-.07-.17-.15-.34-.22-.5l.28.14A7.51,7.51,0,0,0,350,361.2a7.25,7.25,0,0,0-1.63,3.82,9.84,9.84,0,0,0,.42,3.86,2.93,2.93,0,0,1-.45-1A7.26,7.26,0,0,1,348,365a7.39,7.39,0,0,1,1.62-4.08,7.87,7.87,0,0,1,4.62-2.8l.2,0,.08.18c.07.17.16.35.23.54a8.79,8.79,0,0,1,.28,5.59,8.35,8.35,0,0,1-2.41,3.89,8,8,0,0,1-2.62,1.62A2.88,2.88,0,0,1,348.93,370.16Z" style="fill:#263238"></path><path d="M351.78,362.45a40.25,40.25,0,0,0-1.56,3.73,33.37,33.37,0,0,0-.64,4,6.78,6.78,0,0,1,.14-4.13A6.91,6.91,0,0,1,351.78,362.45Z" style="fill:#263238"></path><path d="M329.26,353.34c.06.06-.07.25,0,.53a.47.47,0,1,0,.74-.46c-.22-.2-.45-.17-.47-.24s.23-.27.66-.08a.92.92,0,0,1,.5.64.87.87,0,0,1-.44.91.89.89,0,0,1-1,0,.87.87,0,0,1-.35-.72C328.92,353.43,329.24,353.28,329.26,353.34Z" style="fill:#263238"></path><path d="M337.84,366.93c.05.06-.07.25,0,.53a.47.47,0,0,0,.73.33.46.46,0,0,0,0-.79c-.22-.2-.45-.17-.47-.24s.23-.27.66-.08a.92.92,0,0,1,.5.63.89.89,0,0,1-.44.92.9.9,0,0,1-1,0,.86.86,0,0,1-.34-.72C337.49,367,337.81,366.87,337.84,366.93Z" style="fill:#263238"></path><path d="M343.5,358.39c0-.08.23-.1.41-.34a.48.48,0,1,0-.84-.29c0,.3.16.46.12.52s-.36,0-.48-.47a.89.89,0,0,1,.18-.78.9.9,0,0,1,1-.24.87.87,0,0,1,.28,1.53C343.78,358.6,343.47,358.45,343.5,358.39Z" style="fill:#263238"></path></g><g id="freepik--Plant--inject-10"><path d="M348.17,412.56c-8.82,4.34-18.47,9-22.48,17.86-1.41.21-3,.45-4.75.74-7.13,1.19-16.86,3.12-27.52,5.68A86.91,86.91,0,0,0,312,425.08c6.81-5.54,12.46-12.76,15-21.15a39.76,39.76,0,0,0-36.56,33.65c-10.34,2.57-19.58,5.26-26.3,7.44l-.66.22c6.52-4.1,15-11.71,19-17.95,4.16-6.48,7.3-13.56,10.41-20.61a38.38,38.38,0,0,0-30.12,38.81c-6.27,2.07-10,3.57-9.92,3.88s4.62-.73,11.85-2.58l3.32-.86c4.71,7.52,9,11,17.49,14.19,8.73,3.26,18,4.55,27.27,5.81a38.64,38.64,0,0,0-37.63-21.82c5.36-1.38,11.4-2.9,17.83-4.47l4.57-1.11c5.48,5.85,11.77,11.08,19.16,14.16,7.78,3.24,16.91,3.89,24.57.38A37.68,37.68,0,0,0,320,437.77a76.11,76.11,0,0,0-9.88-2.22c4.16-1,8-1.84,11.18-2.58,2.23-.52,4.19-1,5.84-1.38a47.49,47.49,0,0,0,50.61-21.73A42,42,0,0,0,348.17,412.56Z" style="fill:#263238"></path><path d="M209.85,448.9c.2-.35-4-3.07-10.73-7.36l-3.11-2c2.4-9.19,2-15.12-1.77-24.08-3.87-9.21-9.72-17.43-15.52-25.56a41.47,41.47,0,0,0,10.63,45.43c-5-3.18-10.65-6.77-16.6-10.64L168.53,422c.54-8.57,0-17.33-3-25.36-3.19-8.46-9.4-16.06-17.78-19.47a40.36,40.36,0,0,0,3.66,27.81,79.9,79.9,0,0,0,5.53,9.35l-10.24-6.83c-2.06-1.37-3.84-2.54-5.37-3.54a50.94,50.94,0,0,0-54.18-23.54A45,45,0,0,0,111,401.48c9.87,3.71,20.6,7.81,30.47,4.43q1.8,1.43,4.07,3.16c6.17,4.7,14.83,10.87,24.67,17.31a92.53,92.53,0,0,0-22.81-5.82c-9.33-1.24-19.12-.35-27.56,3.82a42.65,42.65,0,0,0,53.16,3.8c9.61,6.18,18.5,11.42,25.14,15.06l.66.36c-8-2.09-20.13-3.07-27.94-1.6-8.13,1.52-16,4.27-23.75,7a41.15,41.15,0,0,0,52.45-5C205.75,447.37,209.68,449.2,209.85,448.9Z" style="fill:#263238"></path><path d="M213.6,435.89c-6.43-1.41-10.51-7.89-12.8-14.31-5.66-15.91-4-34.73,4.29-49.84,3-5.43,7.14-10.65,12.8-12.59a19,19,0,0,1,12.84.64c9.76,3.67,17,12.85,19.83,23.33s1.45,22.05-2.65,32.31c-2.71,6.79-6.74,13.27-12.54,17.47s-13.57,5.77-19.77,2.75" style="fill:#F52C55"></path><path d="M213.6,435.89c-6.43-1.41-10.51-7.89-12.8-14.31-5.66-15.91-4-34.73,4.29-49.84,3-5.43,7.14-10.65,12.8-12.59a19,19,0,0,1,12.84.64c9.76,3.67,17,12.85,19.83,23.33s1.45,22.05-2.65,32.31c-2.71,6.79-6.74,13.27-12.54,17.47s-13.57,5.77-19.77,2.75" style="opacity:0.5"></path><path d="M233.38,439.2a87.55,87.55,0,0,1,17.78-37.68c3.82-4.7,8.21-9.06,13.54-11.95s11.68-4.2,17.54-2.65,11,6.28,12.13,12.23c1,5.33-1.16,10.84-4.4,15.2-5.78,7.8-14.6,12.71-23.36,16.92a89.71,89.71,0,0,1-17.55,6.78,38.36,38.36,0,0,1-18.65.33" style="fill:#F52C55"></path><path d="M233.38,439.2a87.55,87.55,0,0,1,17.78-37.68c3.82-4.7,8.21-9.06,13.54-11.95s11.68-4.2,17.54-2.65,11,6.28,12.13,12.23c1,5.33-1.16,10.84-4.4,15.2-5.78,7.8-14.6,12.71-23.36,16.92a89.71,89.71,0,0,1-17.55,6.78,38.36,38.36,0,0,1-18.65.33" style="opacity:0.4"></path><path d="M229.2,457.78c1.59,3.59,5.53,5.7,9.43,6.13s7.81-.55,11.58-1.64A93.34,93.34,0,0,0,270.76,454,46.81,46.81,0,0,0,287,439.23c2.2-3.41,3.78-8.06,1.4-11.35-2.13-3-6.35-3.29-10-3.22-8.91.16-17.94,1.06-26.26,4.24s-16,8.85-20.09,16.75c-1.73,3.3-2.84,7.11-2.09,10.77s3.69,7,7.41,7.34" style="fill:#F52C55"></path><path d="M229.2,457.78c1.59,3.59,5.53,5.7,9.43,6.13s7.81-.55,11.58-1.64A93.34,93.34,0,0,0,270.76,454,46.81,46.81,0,0,0,287,439.23c2.2-3.41,3.78-8.06,1.4-11.35-2.13-3-6.35-3.29-10-3.22-8.91.16-17.94,1.06-26.26,4.24s-16,8.85-20.09,16.75c-1.73,3.3-2.84,7.11-2.09,10.77s3.69,7,7.41,7.34" style="fill:#fff;opacity:0.1"></path><path d="M213.83,449.4a44.11,44.11,0,0,0,3.73-31.17,49.23,49.23,0,0,0-17.21-26.43c-3.22-2.57-6.87-4.79-10.94-5.4s-8.62.69-11,4c-2.69,3.73-2.14,8.83-1.2,13.33a117.58,117.58,0,0,0,7,22.29c2.76,6.45,4.93,13.57,10.34,18s12.73,7.87,19.26,5.31" style="fill:#F52C55"></path><path d="M213.83,449.4a44.11,44.11,0,0,0,3.73-31.17,49.23,49.23,0,0,0-17.21-26.43c-3.22-2.57-6.87-4.79-10.94-5.4s-8.62.69-11,4c-2.69,3.73-2.14,8.83-1.2,13.33a117.58,117.58,0,0,0,7,22.29c2.76,6.45,4.93,13.57,10.34,18s12.73,7.87,19.26,5.31" style="opacity:0.2"></path><path d="M219.6,413.39c.72-.28,2.6,2.89,4.2,7.07s2.33,7.8,1.61,8.08-2.61-2.89-4.21-7.08S218.88,413.66,219.6,413.39Z" style="fill:#f5f5f5"></path><path d="M225.63,428.22c-.77-.08-1-3.81-.53-8.34s1.48-8.13,2.24-8.05,1,3.82.53,8.34S226.39,428.3,225.63,428.22Z" style="fill:#f5f5f5"></path><path d="M232,415.84c.74.19.64,3-.52,6.21s-2.9,5.43-3.59,5.1-.14-3,1-6S231.26,415.64,232,415.84Z" style="fill:#f5f5f5"></path><path d="M238.7,413.78c.7.33-.37,4-2.4,8.29s-4.22,7.42-4.91,7.09.38-4,2.4-8.29S238,413.45,238.7,413.78Z" style="fill:#f5f5f5"></path><path d="M244.17,419.82c.47.61-1.84,3.16-5,5.84s-6.13,4.48-6.65,3.91,1.61-3.34,4.86-6.05S243.71,419.21,244.17,419.82Z" style="fill:#f5f5f5"></path><path d="M246.91,426.65c.29.71-2.42,2.36-6,3.68s-6.76,1.8-7,1.07,2.47-2.39,6-3.69S246.62,425.93,246.91,426.65Z" style="fill:#f5f5f5"></path><path d="M220.77,425.91c-.12.1-4.13-4.42-9-10.08s-8.63-10.35-8.52-10.45,4.12,4.41,8.95,10.08S220.88,425.81,220.77,425.91Z" style="fill:#263238"></path><path d="M222.13,426.25a13,13,0,0,1-1.39-2.26c-.79-1.44-1.81-3.45-2.85-5.73s-1.88-4.37-2.44-5.91a11.5,11.5,0,0,1-.79-2.53,14.14,14.14,0,0,1,1.15,2.38L218.4,418c1,2.16,1.92,4.12,2.69,5.78A12.91,12.91,0,0,1,222.13,426.25Z" style="fill:#263238"></path><path d="M225.64,427.06c-.15,0-1.28-5.61-2.51-12.59s-2.12-12.65-2-12.68,1.28,5.61,2.52,12.59S225.79,427,225.64,427.06Z" style="fill:#263238"></path><path d="M226.5,425.59a9.58,9.58,0,0,1,.05-1.47c.07-.95.19-2.32.38-4,.36-3.37,1-8,1.92-13.12s2-9.68,2.81-13c.42-1.64.78-3,1.06-3.88a7.51,7.51,0,0,1,.47-1.4,7.55,7.55,0,0,1-.26,1.46c-.24,1-.53,2.34-.89,3.91-.74,3.31-1.72,7.89-2.64,13s-1.62,9.72-2.08,13.07c-.22,1.6-.41,2.93-.55,4A6.53,6.53,0,0,1,226.5,425.59Z" style="fill:#263238"></path><path d="M232.16,429.07c-.14-.05,2.15-6.84,5.13-15.17s5.5-15,5.65-15-2.15,6.84-5.13,15.16S232.3,429.12,232.16,429.07Z" style="fill:#263238"></path><path d="M257.48,405.15a5.77,5.77,0,0,1-.69,1.09c-.47.67-1.17,1.63-2.07,2.8-1.78,2.33-4.36,5.48-7.39,8.79s-6,6.16-8.12,8.14c-1.08,1-2,1.78-2.61,2.3a5.31,5.31,0,0,1-1,.78,6.17,6.17,0,0,1,.88-.94l2.48-2.43c2.1-2.05,4.95-4.93,8-8.22s5.63-6.4,7.5-8.67l2.2-2.69A5.33,5.33,0,0,1,257.48,405.15Z" style="fill:#263238"></path><path d="M259.69,417.07s-.25.29-.78.72-1.29,1-2.26,1.76c-1.94,1.46-4.67,3.39-7.78,5.39s-6,3.67-8.15,4.82c-1.06.58-1.93,1-2.55,1.32a3.86,3.86,0,0,1-1,.41,32.12,32.12,0,0,1,3.33-2.07c2.07-1.24,4.93-3,8-4.95s5.86-3.87,7.85-5.24A32.58,32.58,0,0,1,259.69,417.07Z" style="fill:#263238"></path><path d="M261.6,423.37a22.48,22.48,0,0,1-3.13,1.87c-2,1.07-4.75,2.48-7.88,3.9s-6,2.58-8.12,3.36a23.51,23.51,0,0,1-3.47,1.13,25,25,0,0,1,3.32-1.49c2.07-.87,4.92-2.09,8-3.5s5.91-2.77,7.93-3.75A25.44,25.44,0,0,1,261.6,423.37Z" style="fill:#263238"></path><path d="M200.64,401.77a1.9,1.9,0,0,0-1.24,1.59,2.44,2.44,0,0,0,1.14,2,2.9,2.9,0,0,0,2.4.62,2.27,2.27,0,0,0,1.42-2.87,3.13,3.13,0,0,0-3.72-1.32" style="fill:#263238"></path><path d="M231.75,385.47a1.87,1.87,0,0,0-1.22,1.56,2.42,2.42,0,0,0,1.13,1.94,2.83,2.83,0,0,0,2.34.61,2.21,2.21,0,0,0,1.39-2.81,3,3,0,0,0-3.64-1.3" style="fill:#263238"></path><path d="M254.83,403.94a1.87,1.87,0,0,0-1.22,1.56,2.42,2.42,0,0,0,1.13,1.94,2.83,2.83,0,0,0,2.34.61,2.21,2.21,0,0,0,1.39-2.81,3,3,0,0,0-3.64-1.3" style="fill:#263238"></path><path d="M220.25,399.13a1.28,1.28,0,0,0-.84,1.07,1.65,1.65,0,0,0,.78,1.34,2,2,0,0,0,1.61.42,1.53,1.53,0,0,0,1-1.94,2.1,2.1,0,0,0-2.51-.89" style="fill:#263238"></path><path d="M258.61,415.36a1.28,1.28,0,0,0-.84,1.07,1.65,1.65,0,0,0,.78,1.34,2,2,0,0,0,1.61.42,1.53,1.53,0,0,0,1-1.94,2.1,2.1,0,0,0-2.51-.89" style="fill:#263238"></path><path d="M260.52,421.65a1.26,1.26,0,0,0-.84,1.07,1.64,1.64,0,0,0,.77,1.34,1.93,1.93,0,0,0,1.62.42,1.52,1.52,0,0,0,.95-1.94,2.09,2.09,0,0,0-2.5-.89" style="fill:#263238"></path><path d="M212.93,407.44a1.28,1.28,0,0,0-.84,1.07,1.68,1.68,0,0,0,.77,1.34,2,2,0,0,0,1.62.42,1.54,1.54,0,0,0,1-1.94,2.09,2.09,0,0,0-2.51-.89" style="fill:#263238"></path><path d="M242.35,396.36a1.28,1.28,0,0,0-.84,1.07,1.65,1.65,0,0,0,.78,1.34,2,2,0,0,0,1.61.42,1.53,1.53,0,0,0,1-1.94,2.1,2.1,0,0,0-2.51-.89" style="fill:#263238"></path><path d="M202.52,453.92c3.31,3.85,7.36,7.37,12.29,8.65,4.45,1.16,9.2.37,13.57-1.08,6.64-2.2,13.24-6.51,15.25-13.21,1.62-5.37-.12-11.38-3.61-15.77s-8.55-7.3-13.83-9.2-10.72-2.86-16.11-1.9-10.54,4-13.15,8.86-1.31,16.39,5.59,23.65" style="fill:#F52C55"></path><path d="M202.52,453.92c3.31,3.85,7.36,7.37,12.29,8.65,4.45,1.16,9.2.37,13.57-1.08,6.64-2.2,13.24-6.51,15.25-13.21,1.62-5.37-.12-11.38-3.61-15.77s-8.55-7.3-13.83-9.2-10.72-2.86-16.11-1.9-10.54,4-13.15,8.86-1.31,16.39,5.59,23.65" style="fill:#fff;opacity:0.2"></path><path d="M147.07,196.76c1.07,6,2.2,12.59,6.81,16.51-.12.88-.25,1.87-.38,3-.52,4.47-1,10.61-1.34,17.43a54.09,54.09,0,0,0-3.84-13.1,27.88,27.88,0,0,0-10.06-12.63,24.74,24.74,0,0,0,13.83,27.65c-.24,6.62-.23,12.61-.08,17,0,.15,0,.29,0,.43-1.33-4.6-4.43-11-7.47-14.41A92.81,92.81,0,0,0,134,228.84a23.85,23.85,0,0,0,18,24.68c.16,4.11.41,6.6.61,6.6s.36-2.89.5-7.53c0-.67,0-1.39.06-2.13,5.3-1.52,8.13-3.48,11.49-8s5.82-10,8.16-15.3a24,24,0,0,0-19.52,18.74c.1-3.44.23-7.31.4-11.42,0-1,.08-2,.12-2.93a35.45,35.45,0,0,0,11.76-9c3.28-4.1,5.24-9.44,4.46-14.63a23.47,23.47,0,0,0-12.8,10.05,48.23,48.23,0,0,0-3,5.53c.14-2.66.27-5.08.38-7.14.08-1.41.14-2.67.18-3.72a29.52,29.52,0,0,0-4.28-34A26.05,26.05,0,0,0,147.07,196.76Z" style="fill:#455a64"></path><path d="M145,285.7c-.17-.18-2.51,1.84-6.24,5.14L137,292.37c-5.08-3-8.7-3.8-14.7-3.09-6.17.73-12.09,2.81-18,4.88a25.76,25.76,0,0,0,29,1.46c-2.76,2.45-5.88,5.2-9.21,8.09-.8.7-1.6,1.38-2.38,2.05a38,38,0,0,0-15.68-2.55c-5.61.45-11.22,2.86-14.7,7.28a25.16,25.16,0,0,0,17.26,2.6,51.28,51.28,0,0,0,6.54-1.7l-5.85,4.95c-1.17,1-2.18,1.85-3,2.6a31.67,31.67,0,0,0-23.39,28.33,28,28,0,0,0,16.72-10.63c3.91-5.26,8.21-11,7.89-17.45.77-.56,1.64-1.19,2.58-1.89,3.88-2.88,9.06-7,14.6-11.77a58,58,0,0,0-7.41,12.63,30.06,30.06,0,0,0-2.46,17.13,26.53,26.53,0,0,0,11.43-31.12c5.34-4.68,10-9.09,13.32-12.44l.33-.33c-2.62,4.42-5.3,11.51-5.77,16.43a101.66,101.66,0,0,0,.12,15.41,25.59,25.59,0,0,0,6-32.22C143.37,287.89,145.14,285.85,145,285.7Z" style="fill:#455a64"></path><path d="M137.86,281.22c-2,3.6-6.52,4.92-10.75,5.18a38.65,38.65,0,0,1-29.06-11.13c-2.73-2.72-5.13-6.1-5.32-9.82a11.84,11.84,0,0,1,2.59-7.57c3.87-5.2,10.61-8,17.36-7.84s13.43,2.93,18.86,7.15c3.59,2.79,6.77,6.31,8.28,10.5s1.11,9.1-1.76,12.29" style="fill:#F52C55"></path><path d="M137.86,281.22c-2,3.6-6.52,4.92-10.75,5.18a38.65,38.65,0,0,1-29.06-11.13c-2.73-2.72-5.13-6.1-5.32-9.82a11.84,11.84,0,0,1,2.59-7.57c3.87-5.2,10.61-8,17.36-7.84s13.43,2.93,18.86,7.15c3.59,2.79,6.77,6.31,8.28,10.5s1.11,9.1-1.76,12.29" style="opacity:0.5"></path><path d="M143.24,270a54.32,54.32,0,0,1-19.46-17.11A28.86,28.86,0,0,1,119,242.7a15.11,15.11,0,0,1,1.44-10.94,10.31,10.31,0,0,1,9.4-5.15c3.36.31,6.27,2.57,8.32,5.25,3.68,4.8,5.09,10.92,6.1,16.87a56.52,56.52,0,0,1,1,11.66,23.91,23.91,0,0,1-3,11.21" style="fill:#F52C55"></path><path d="M143.24,270a54.32,54.32,0,0,1-19.46-17.11A28.86,28.86,0,0,1,119,242.7a15.11,15.11,0,0,1,1.44-10.94,10.31,10.31,0,0,1,9.4-5.15c3.36.31,6.27,2.57,8.32,5.25,3.68,4.8,5.09,10.92,6.1,16.87a56.52,56.52,0,0,1,1,11.66,23.91,23.91,0,0,1-3,11.21" style="opacity:0.30000000000000004"></path><path d="M153.63,275.66a7.16,7.16,0,0,0,5.29-4.58,19,19,0,0,0,1-7.21,58.32,58.32,0,0,0-1.39-13.7,29.06,29.06,0,0,0-6.06-12.25c-1.65-1.91-4.16-3.65-6.54-2.79-2.13.76-3.05,3.23-3.64,5.42-1.44,5.35-2.46,10.9-2,16.43s2.55,11.06,6.56,14.89A10.27,10.27,0,0,0,153,275a5.56,5.56,0,0,0,5.66-3.17" style="fill:#F52C55"></path><path d="M153.63,275.66a7.16,7.16,0,0,0,5.29-4.58,19,19,0,0,0,1-7.21,58.32,58.32,0,0,0-1.39-13.7,29.06,29.06,0,0,0-6.06-12.25c-1.65-1.91-4.16-3.65-6.54-2.79-2.13.76-3.05,3.23-3.64,5.42-1.44,5.35-2.46,10.9-2,16.43s2.55,11.06,6.56,14.89A10.27,10.27,0,0,0,153,275a5.56,5.56,0,0,0,5.66-3.17" style="fill:#fff;opacity:0.1"></path><path d="M146,283.4a27.51,27.51,0,0,0-18-7.59,30.73,30.73,0,0,0-18.76,5.74,14.76,14.76,0,0,0-5.1,5.61,7.18,7.18,0,0,0,.51,7.29c1.77,2.25,4.91,2.79,7.76,3a72.85,72.85,0,0,0,14.54-.37c4.33-.54,9-.61,12.56-3.07s6.9-6.26,6.49-10.61" style="fill:#F52C55"></path><path d="M125.44,273.76c0-.48,2.18-1.06,5-1.3s5.06,0,5.1.44-2.18,1.05-4.95,1.29S125.48,274.24,125.44,273.76Z" style="fill:#f5f5f5"></path><path d="M135.35,272.71c-.18.44-2.46-.06-5.08-1.12s-4.6-2.28-4.42-2.73,2.45.06,5.07,1.12S135.53,272.26,135.35,272.71Z" style="fill:#f5f5f5"></path><path d="M129,266.76c.24-.4,1.92.14,3.63,1.39s2.74,2.66,2.43,3-1.81-.43-3.45-1.62S128.79,267.18,129,266.76Z" style="fill:#f5f5f5"></path><path d="M129,262.41c.32-.36,2.35.92,4.55,2.86s3.71,3.8,3.39,4.16-2.35-.92-4.54-2.86S128.65,262.77,129,262.41Z" style="fill:#f5f5f5"></path><path d="M133.51,260.18c.45-.18,1.58,1.64,2.63,4s1.62,4.43,1.19,4.65-1.72-1.54-2.78-3.95S133.07,260.35,133.51,260.18Z" style="fill:#f5f5f5"></path><path d="M138.07,259.72c.47-.05,1,1.85,1.16,4.24s-.09,4.36-.57,4.37-1-1.88-1.16-4.25S137.59,259.77,138.07,259.72Z" style="fill:#f5f5f5"></path><path d="M133.13,275.22c0,.08-3.35,1.7-7.57,3.61s-7.67,3.38-7.71,3.29,3.35-1.7,7.57-3.61S133.09,275.13,133.13,275.22Z" style="fill:#263238"></path><path d="M133.57,274.46a8,8,0,0,1-1.59.44c-1,.23-2.38.49-3.92.72s-2.94.37-4,.44a6.79,6.79,0,0,1-1.65,0,8.54,8.54,0,0,1,1.62-.28l3.93-.54,3.92-.62A8.08,8.08,0,0,1,133.57,274.46Z" style="fill:#263238"></path><path d="M134.65,272.5c0,.1-3.57-.2-8-.66s-7.93-.91-7.92-1,3.57.2,8,.66S134.66,272.41,134.65,272.5Z" style="fill:#263238"></path><path d="M133.93,271.73a5.12,5.12,0,0,1-.88-.28c-.55-.2-1.35-.51-2.33-.91-1.95-.8-4.62-2-7.51-3.41s-5.45-2.84-7.27-3.91c-.91-.54-1.64-1-2.14-1.3a5.6,5.6,0,0,1-.75-.52,4.62,4.62,0,0,1,.82.4l2.19,1.21c1.85,1,4.42,2.38,7.3,3.81s5.53,2.64,7.46,3.49l2.28,1A5.88,5.88,0,0,1,133.93,271.73Z" style="fill:#263238"></path><path d="M137,269c-.06.08-3.72-2.46-8.19-5.67s-8-5.88-8-6,3.72,2.46,8.19,5.68S137,268.87,137,269Z" style="fill:#263238"></path><path d="M127,249.7a4.22,4.22,0,0,1,.53.6c.32.39.77,1,1.32,1.72,1.08,1.47,2.52,3.55,4,5.93s2.66,4.61,3.47,6.25c.4.82.72,1.49.93,2a3.07,3.07,0,0,1,.28.74,4,4,0,0,1-.41-.68c-.27-.52-.61-1.15-1-1.91-.87-1.6-2.09-3.8-3.55-6.18s-2.85-4.47-3.88-6l-1.23-1.78A3.11,3.11,0,0,1,127,249.7Z" style="fill:#263238"></path><path d="M134.54,250.43s.13.2.3.59.39.95.66,1.65c.54,1.41,1.22,3.38,1.88,5.58s1.16,4.23,1.48,5.7c.17.74.28,1.33.36,1.75a2,2,0,0,1,.07.65,19.73,19.73,0,0,1-.66-2.34c-.39-1.46-.93-3.46-1.58-5.66s-1.3-4.17-1.78-5.59A21,21,0,0,1,134.54,250.43Z" style="fill:#263238"></path><path d="M138.63,250.37a12.4,12.4,0,0,1,.58,2.19c.31,1.37.67,3.27,1,5.39s.51,4,.61,5.43a13.45,13.45,0,0,1,.08,2.27,15.67,15.67,0,0,1-.32-2.25c-.17-1.38-.4-3.3-.71-5.4s-.64-4-.88-5.39A16.36,16.36,0,0,1,138.63,250.37Z" style="fill:#263238"></path><path d="M115.24,283.09a1.17,1.17,0,0,0,.73,1,1.56,1.56,0,0,0,1.39-.34,1.83,1.83,0,0,0,.78-1.33,1.42,1.42,0,0,0-1.47-1.34,1.93,1.93,0,0,0-1.43,2" style="fill:#263238"></path><path d="M110.85,261.69a1.14,1.14,0,0,0,.72,1,1.48,1.48,0,0,0,1.35-.34,1.77,1.77,0,0,0,.77-1.29,1.39,1.39,0,0,0-1.44-1.32,1.89,1.89,0,0,0-1.4,1.95" style="fill:#263238"></path><path d="M125.86,251.07a1.14,1.14,0,0,0,.72,1,1.47,1.47,0,0,0,1.35-.34,1.72,1.72,0,0,0,.77-1.29,1.39,1.39,0,0,0-1.44-1.32,1.9,1.9,0,0,0-1.4,1.95" style="fill:#263238"></path><path d="M117,270.92a.82.82,0,0,0,.5.68,1,1,0,0,0,.93-.23,1.22,1.22,0,0,0,.53-.89,1,1,0,0,0-1-.91,1.31,1.31,0,0,0-1,1.35" style="fill:#263238"></path><path d="M133.33,250.78a.82.82,0,0,0,.5.69,1,1,0,0,0,.93-.24,1.19,1.19,0,0,0,.53-.89,1,1,0,0,0-1-.91,1.32,1.32,0,0,0-1,1.35" style="fill:#263238"></path><path d="M137.42,250.72a.82.82,0,0,0,.5.69,1,1,0,0,0,.93-.23,1.22,1.22,0,0,0,.53-.9,1,1,0,0,0-1-.9,1.31,1.31,0,0,0-1,1.34" style="fill:#263238"></path><path d="M120.74,276.72a.79.79,0,0,0,.49.69,1.06,1.06,0,0,0,.94-.23,1.25,1.25,0,0,0,.53-.9,1,1,0,0,0-1-.9,1.29,1.29,0,0,0-1,1.34" style="fill:#263238"></path><path d="M119.18,257.23a.79.79,0,0,0,.49.69,1,1,0,0,0,.94-.24,1.22,1.22,0,0,0,.53-.89,1,1,0,0,0-1-.91,1.3,1.3,0,0,0-1,1.35" style="fill:#263238"></path><path d="M146.73,290.94c2.88-1.32,5.67-3.13,7.29-5.85a15.19,15.19,0,0,0,1.69-8.3c-.18-4.35-1.62-9-5.28-11.39a11,11,0,0,0-10-.55,19,19,0,0,0-7.88,6.68,19.51,19.51,0,0,0-3.91,9.3,11.55,11.55,0,0,0,3,9.39c2.43,2.38,9.58,3.6,15.1.72" style="fill:#F52C55"></path><path d="M146.73,290.94c2.88-1.32,5.67-3.13,7.29-5.85a15.19,15.19,0,0,0,1.69-8.3c-.18-4.35-1.62-9-5.28-11.39a11,11,0,0,0-10-.55,19,19,0,0,0-7.88,6.68,19.51,19.51,0,0,0-3.91,9.3,11.55,11.55,0,0,0,3,9.39c2.43,2.38,9.58,3.6,15.1.72" style="fill:#fff;opacity:0.2"></path></g></svg>